<?xml version="1.0" encoding="UTF-8"?>
<svg width="170px" height="378px" viewBox="0 0 170 378" version="1.1" xmlns="http://www.w3.org/2000/svg" xmlns:xlink="http://www.w3.org/1999/xlink">
    <g id="Page-1" stroke="none" stroke-width="1" fill="none" fill-rule="evenodd">
        <g id="als-device-malfunctioning-(1)" fill-rule="nonzero">
            <path d="M154.878,59.656 C154.959,59.885 154.959,51.649 154.878,34.949 C154.878,25.424 148.325,17.162 139.057,14.96 C103.318,6.468 66.076,6.468 30.337,14.96 C21.069,17.162 14.516,25.424 14.516,34.949 L14.516,50.793 L15,51 C15.667,56.333 15.505,59.219 14.516,59.657 L14.516,357.659 C14.516,368.641 23.422,377.546 34.404,377.546 L134.99,377.546 C145.971,377.546 154.877,368.641 154.877,357.659 L154.878,59.656 Z" id="Path" fill="#5F100D"></path>
            <path d="M30.337,6.37 C21.069,8.571 14.517,16.833 14.517,26.358 L14.517,54.48 L154.877,54.48 L154.877,26.358 C154.877,16.833 148.325,8.571 139.057,6.369 C103.318,-2.123 66.076,-2.123 30.337,6.369" id="Path" fill="#333333"></path>
            <path d="M24.215,14.865 C23.755,14.865 23.309,14.635 23.048,14.218 C22.649,13.575 22.844,12.729 23.488,12.328 C25.503,11.074 27.698,10.158 30.02,9.607 C34.982,8.428 40.04,7.398 45.068,6.544 C45.815,6.416 46.521,6.919 46.649,7.666 C46.777,8.413 46.276,9.121 45.529,9.248 C40.562,10.093 35.555,11.111 30.654,12.276 C28.624,12.759 26.7,13.56 24.936,14.658 C24.711,14.798 24.46,14.865 24.215,14.865 M145.18,14.865 C144.934,14.865 144.683,14.798 144.458,14.658 C142.694,13.56 140.77,12.758 138.74,12.276 C133.84,11.111 128.832,10.093 123.865,9.248 C123.119,9.121 122.617,8.413 122.745,7.666 C122.873,6.919 123.579,6.416 124.325,6.544 C129.354,7.398 134.413,8.428 139.375,9.607 C141.696,10.158 143.891,11.074 145.906,12.329 C146.55,12.729 146.745,13.575 146.346,14.219 C146.085,14.636 145.64,14.865 145.18,14.865" id="Shape" fill="#FFFFFF"></path>
            <path d="M14.516,315.48 L14.516,349.066 C14.516,360.048 23.422,368.953 34.404,368.953 L134.99,368.953 C145.971,368.953 154.877,360.048 154.877,349.066 L154.877,315.481 L14.516,315.481" id="Path" fill="#333333"></path>
            <g id="kwekxcoweb-link" transform="translate(14.000000, 4.000000)" fill="#000000">
                <path d="M120.99,359.67 L20.405,359.67 C9.423,359.67 0.517,350.764 0.517,339.782 L0.517,26.93 C0.517,17.405 7.07,9.143 16.338,6.941 C52.077,-1.551 89.319,-1.551 125.058,6.941 C134.326,9.143 140.878,17.405 140.878,26.931 L140.878,339.782 C140.878,350.764 131.973,359.67 120.992,359.67" id="kwekxcoweb"></path>
            </g>
            <g id="kwekxcoweb-link" transform="translate(14.000000, 4.000000)" fill="#801D19">
                <path d="M120.99,359.67 L20.405,359.67 C9.423,359.67 0.517,350.764 0.517,339.782 L0.517,26.93 C0.517,17.405 7.07,9.143 16.338,6.941 C52.077,-1.551 89.319,-1.551 125.058,6.941 C134.326,9.143 140.878,17.405 140.878,26.931 L140.878,339.782 C140.878,350.764 131.973,359.67 120.992,359.67" id="kwekxcoweb"></path>
            </g>
            <path d="M30.337,10.942 C23.324,12.607 17.872,17.742 15.632,24.267 L33.35,79.285 C67.247,71.699 102.413,71.72 136.3,79.344 L137.957,73.73 L153.917,24.731 C151.778,17.986 146.233,12.647 139.057,10.941 C103.318,2.449 66.076,2.449 30.337,10.941" id="Path" fill="#801D19"></path>
            <path d="M150.97,45.29 L139.39,79.733 L139.39,116.613 L150.97,116.613 L150.97,45.29 Z M139.39,232.137 L150.97,232.137 L150.97,140.087 L139.39,140.087 L139.39,232.137 Z M150.97,245.599 L139.39,245.599 L139.39,329.731 L150.97,342.33 L150.97,245.6 L150.97,245.599 Z M18.424,116.614 L30.004,116.614 L30.004,79.734 L18.425,45.29 L18.425,116.614 L18.424,116.614 Z M18.424,232.137 L30.004,232.137 L30.004,140.087 L18.424,140.087 L18.424,232.137 Z M18.424,245.599 L30.004,245.599 L30.004,329.731 L18.424,342.33 L18.424,245.6 L18.424,245.599 Z" id="Shape" fill="#202629"></path>
            <path d="M139.389,150.941 L139.389,140.087 L150.97,140.087 L150.97,141.565 L139.389,150.941 M150.97,232.137 L139.389,232.137 L139.389,222.413 L150.97,213.037 L150.97,232.137" id="Shape" fill="#4D565A"></path>
            <polyline id="Path" fill="#202629" points="143.405 334.094 139.389 329.731 139.389 287.773 150.97 278.397 150.97 327.972 143.405 334.094"></polyline>
            <path d="M18.424,248.837 L18.424,245.599 L22.424,245.599 L18.424,248.837 M30.005,232.137 L18.424,232.137 L18.424,231.477 L30.005,222.101 L30.005,232.137" id="Shape" fill="#4D565A"></path>
            <polyline id="Path" fill="#202629" points="139.389 271.988 139.389 245.599 150.97 245.599 150.97 262.612 139.389 271.988"></polyline>
            <path d="M18.424,342.33 L18.424,320.314 L30.005,310.939 L30.005,329.731 L18.424,342.33 M18.424,215.671 L18.424,166.097 L30.005,156.721 L30.005,206.296 L18.424,215.671 M18.424,150.312 L18.424,140.087 L30.005,140.087 L30.005,140.941 L18.424,150.312 M30.005,116.614 L18.424,116.614 L18.424,100.739 L30.005,91.365 L30.005,116.614" id="Shape" fill="#4D565A"></path>
            <polyline id="Path" fill="#FFEC8E" points="139.389 79.733 144.719 63.882 139.389 79.733"></polyline>
            <path d="M140.817,116.614 L139.389,116.614 L139.389,79.733 L144.719,63.882 L150.97,58.822 L150.97,108.396 L140.817,116.614 M128.73,339.363 L40.47,339.363 C38.163,339.363 36.04,340.606 34.905,342.606 L29.284,352.55 C28.056,354.719 29.621,357.404 32.117,357.404 L137.083,357.404 C139.579,357.404 141.144,354.719 139.917,352.55 L134.295,342.606 C133.16,340.606 131.037,339.363 128.73,339.363 M84.598,19 C102.843,19 121.088,21.123 138.96,25.37 C140.27,25.68 141.528,26.114 142.72,26.656 C146.228,28.249 147.993,32.212 146.858,35.893 L140.484,56.617 C139.324,60.382 135.502,62.674 131.646,61.887 C116.121,58.717 100.362,57.129 84.598,57.129 C68.838,57.129 53.078,58.717 37.555,61.886 C33.698,62.674 29.877,60.382 28.716,56.617 L22.343,35.893 C21.207,32.213 22.972,28.248 26.481,26.656 C27.673,26.114 28.931,25.681 30.241,25.369 C48.111,21.123 66.356,19 84.597,19" id="Shape" fill="#202629"></path>
            <polygon id="Path" fill="#FFFFFF" points="117.672 200.645 117.672 227.034 98.027 227.034 98.027 246.672 71.639 246.672 71.639 227.034 52 227.034 52 200.645 71.639 200.645 71.639 181 98.027 181 98.027 200.645"></polygon>
            <g id="Group" transform="translate(40.000000, 87.000000)">
                <path d="M23.361,18.426 L3.997,18.426 C1.789,18.426 0,16.636 0,14.429 L0,3.997 C0,1.789 1.79,0 3.997,0 L23.36,0 L23.36,18.426" id="Path" fill="#B51304"></path>
                <polygon id="Path" fill="#CDCFD1" points="23.361 18.426 66.593 18.426 66.593 0 23.361 0"></polygon>
                <polygon id="Path" fill="#E8E9EA" points="23.361 14.608 66.593 14.608 66.593 3.817 23.361 3.817"></polygon>
                <polygon id="Path" fill="#801D19" points="4.84 14.608 18.521 14.608 18.521 3.817 4.84 3.817"></polygon>
                <path d="M85.958,18.426 L66.593,18.426 L66.593,0 L85.958,0 C88.165,0 89.953,1.79 89.953,3.997 L89.953,14.429 C89.953,16.636 88.165,18.426 85.958,18.426" id="Path" fill="#B51304"></path>
                <polygon id="Path" fill="#801D19" points="71.434 14.608 85.112 14.608 85.112 3.817 71.434 3.817"></polygon>
            </g>
            <polyline id="Path" fill="#FFED98" points="32.45 347.445 32.45 347.445 35.002 342.928 32.45 347.445"></polyline>
            <path d="M59.314,357.726 L40.772,357.726 L32.45,347.445 L35.002,342.928 C36.138,340.928 38.26,339.685 40.567,339.685 L44.716,339.685 L59.314,357.725" id="Path" fill="#202629"></path>
            <polyline id="Path" fill="#FFED98" points="135.251 344.452 135.251 344.452 134.392 342.928 135.251 344.452"></polyline>
            <path d="M135.251,344.452 L132.151,340.622 C132.996,341.132 133.722,341.844 134.259,342.708 C134.269,342.723 134.274,342.738 134.285,342.748 C134.285,342.754 134.29,342.754 134.29,342.759 C134.3,342.769 134.305,342.785 134.31,342.795 C134.315,342.8 134.32,342.805 134.32,342.81 L134.336,342.841 C134.346,342.846 134.351,342.856 134.356,342.867 C134.356,342.872 134.361,342.877 134.366,342.882 C134.372,342.897 134.382,342.912 134.392,342.928 L135.252,344.452" id="Path" fill="#A5D0DC"></path>
            <path d="M129.139,357.726 L76.193,357.726 L61.595,339.685 L114.536,339.685 L129.139,357.726 M30.337,25.69 C29.027,26.002 27.769,26.436 26.577,26.977 C25.81,27.327 25.13,27.796 24.537,28.345 C25.13,28.895 25.81,29.363 26.577,29.712 C27.769,30.253 29.027,30.687 30.337,30.999 C48.209,35.245 66.454,37.369 84.695,37.369 C102.94,37.369 121.185,35.245 139.057,30.999 C140.367,30.687 141.625,30.253 142.817,29.712 C143.584,29.363 144.264,28.895 144.857,28.345 C144.264,27.795 143.584,27.327 142.817,26.977 C141.625,26.437 140.367,26.002 139.057,25.691 C121.185,21.445 102.94,19.321 84.695,19.321 C66.455,19.321 48.209,21.445 30.337,25.691" id="Shape" fill="#202629"></path>
            <path d="M19.033,246.213 L19.033,340.764 L29.396,329.491 L29.396,246.213 L19.033,246.213 L19.033,246.213 Z M18.424,342.938 C18.348,342.938 18.271,342.923 18.199,342.898 C17.969,342.805 17.811,342.58 17.811,342.33 L17.811,245.6 C17.811,245.267 18.087,244.99 18.424,244.99 L30.004,244.99 C30.342,244.99 30.614,245.267 30.614,245.6 L30.614,329.731 C30.614,329.88 30.557,330.028 30.454,330.141 L18.87,342.738 C18.753,342.866 18.589,342.938 18.425,342.938 L18.424,342.938 Z M19.033,231.528 L29.396,231.528 L29.396,140.695 L19.033,140.695 L19.033,231.528 Z M30.005,232.75 L18.425,232.75 C18.087,232.75 17.811,232.474 17.811,232.137 L17.811,140.087 C17.811,139.749 18.087,139.478 18.424,139.478 L30.004,139.478 C30.342,139.478 30.614,139.749 30.614,140.087 L30.614,232.137 C30.614,232.474 30.342,232.75 30.004,232.75 L30.005,232.75 Z M19.033,116.005 L29.396,116.005 L29.396,79.833 L19.033,49.015 L19.033,116.005 Z M30.005,117.223 L18.425,117.223 C18.087,117.223 17.811,116.951 17.811,116.613 L17.811,45.29 C17.811,44.99 18.031,44.736 18.322,44.688 C18.619,44.64 18.905,44.812 19.002,45.095 L30.582,79.539 C30.603,79.602 30.613,79.667 30.613,79.733 L30.613,116.613 C30.613,116.951 30.343,117.223 30.005,117.223 L30.005,117.223 Z M139.998,329.49 L150.361,340.764 L150.361,246.214 L139.998,246.214 L139.998,329.491 L139.998,329.49 Z M150.97,342.938 C150.806,342.938 150.642,342.867 150.525,342.738 L138.939,330.14 C138.837,330.028 138.781,329.88 138.781,329.731 L138.781,245.6 C138.781,245.268 139.051,244.992 139.389,244.992 L150.969,244.992 C151.307,244.992 151.584,245.268 151.584,245.6 L151.584,342.33 C151.584,342.581 151.425,342.806 151.194,342.898 C151.124,342.924 151.047,342.939 150.97,342.939 L150.97,342.938 Z M139.998,231.528 L150.361,231.528 L150.361,140.695 L139.998,140.695 L139.998,231.528 Z M150.97,232.75 L139.39,232.75 C139.052,232.75 138.78,232.474 138.78,232.137 L138.78,140.087 C138.78,139.749 139.052,139.478 139.39,139.478 L150.97,139.478 C151.307,139.478 151.584,139.749 151.584,140.087 L151.584,232.137 C151.584,232.474 151.307,232.75 150.97,232.75 Z M139.998,116.005 L150.361,116.005 L150.361,49.015 L139.998,79.833 L139.998,116.005 Z M150.97,117.223 L139.39,117.223 C139.052,117.223 138.78,116.951 138.78,116.613 L138.78,79.733 C138.78,79.667 138.791,79.602 138.811,79.539 L150.391,45.095 C150.489,44.812 150.775,44.64 151.072,44.688 C151.364,44.736 151.584,44.991 151.584,45.29 L151.584,116.614 C151.584,116.951 151.307,117.223 150.97,117.223 Z" id="Shape" fill="#353535"></path>
            <path d="M15.995,23.282 C15.678,24.077 15.406,24.895 15.186,25.733 L32.838,80.31 L32.838,123.319 L14.516,123.319 L14.516,124.843 L32.838,124.843 L32.838,132.464 L14.516,132.464 L14.516,133.989 L32.838,133.989 L32.838,238.233 L14.516,238.233 L14.516,239.757 L32.838,239.757 L32.838,337.096 C32.097,337.848 31.422,338.676 30.828,339.572 L19.381,356.8 C19.724,357.194 20.076,357.577 20.45,357.946 L32.097,340.416 C34.915,336.171 39.641,333.639 44.736,333.639 L124.658,333.639 C129.753,333.639 134.479,336.171 137.298,340.416 L148.944,357.946 C149.318,357.577 149.671,357.194 150.014,356.8 L138.566,339.573 C137.973,338.677 137.297,337.849 136.556,337.097 L136.556,239.758 L154.878,239.758 L154.878,238.234 L136.556,238.234 L136.556,133.99 L154.878,133.99 L154.878,132.465 L136.556,132.465 L136.556,124.844 L154.878,124.844 L154.878,123.32 L136.556,123.32 L136.556,80.31 L154.208,25.732 C153.988,24.895 153.717,24.077 153.399,23.282 L135.067,79.956 L135.031,80.07 L135.031,335.726 C132.121,333.419 128.489,332.115 124.658,332.115 L44.736,332.115 C40.905,332.115 37.273,333.419 34.363,335.726 L34.363,80.07 L15.995,23.282" id="Path" fill="#5F100D"></path>
            <g id="n3prlvglid-link" transform="translate(150.000000, 40.000000)" fill="#000000">
                <path d="M0.97,13.672 L0.97,0.842 L13.768,5.298 C17.133,6.471 19.394,9.648 19.394,13.215 C19.394,14.099 18.509,14.711 17.681,14.399 L7.578,11.241 C5.078,10.46 2.366,11.458 0.97,13.671" id="n3prlvglid"></path>
            </g>
            <g id="n3prlvglid-link" transform="translate(150.000000, 40.000000)" fill="#801D19">
                <path d="M0.97,13.672 L0.97,0.842 L13.768,5.298 C17.133,6.471 19.394,9.648 19.394,13.215 C19.394,14.099 18.509,14.711 17.681,14.399 L7.578,11.241 C5.078,10.46 2.366,11.458 0.97,13.671" id="n3prlvglid"></path>
            </g>
            <path d="M150.97,44.652 L163.768,49.108 C166.213,49.96 168.064,51.868 168.903,54.213 C169.195,53.986 169.394,53.631 169.394,53.215 C169.394,49.648 167.134,46.471 163.768,45.298 L150.97,40.842 L150.97,44.652" id="Path" fill="#5F100D"></path>
            <path d="M150.97,54.281 C150.637,54.281 150.361,54.009 150.361,53.671 L150.361,40.843 C150.361,40.506 150.637,40.233 150.97,40.233 C151.307,40.233 151.584,40.506 151.584,40.843 L151.584,53.673 C151.584,54.01 151.307,54.283 150.97,54.283" id="Path" fill="#353535"></path>
            <g id="aa1j3pi37f-link" transform="translate(0.000000, 40.000000)" fill="#000000">
                <path d="M18.424,13.672 L18.424,0.842 L5.627,5.298 C2.26,6.47 0,9.648 0,13.215 C0,14.099 0.885,14.711 1.714,14.399 L11.816,11.241 C14.316,10.46 17.028,11.458 18.424,13.671" id="aa1j3pi37f"></path>
            </g>
            <g id="aa1j3pi37f-link" transform="translate(0.000000, 40.000000)" fill="#801D19">
                <path d="M18.424,13.672 L18.424,0.842 L5.627,5.298 C2.26,6.47 0,9.648 0,13.215 C0,14.099 0.885,14.711 1.714,14.399 L11.816,11.241 C14.316,10.46 17.028,11.458 18.424,13.671" id="aa1j3pi37f"></path>
            </g>
            <path d="M18.424,44.652 L5.627,49.108 C3.182,49.96 1.33,51.868 0.491,54.213 C0.199,53.986 0,53.631 0,53.215 C0,49.648 2.26,46.471 5.627,45.298 L18.424,40.842 L18.424,44.652" id="Path" fill="#5F100D"></path>
            <path d="M18.424,54.281 C18.087,54.281 17.811,54.009 17.811,53.671 L17.811,40.843 C17.811,40.506 18.087,40.233 18.424,40.233 C18.757,40.233 19.033,40.506 19.033,40.843 L19.033,53.673 C19.033,54.01 18.757,54.283 18.424,54.283" id="Path" fill="#353535"></path>
            <path d="M138.852,59.925 C139.625,59.097 140.228,58.086 140.582,56.939 L143.548,47.292 L140.581,56.939 C140.228,58.086 139.625,59.097 138.852,59.925" id="Path" fill="#FFD898"></path>
            <path d="M115.349,35.362 L102.945,20.036 C109.83,20.572 116.699,21.413 123.528,22.556 L131.681,32.626 C130.055,32.959 128.423,33.273 126.791,33.569 C124.587,33.972 122.371,34.341 120.157,34.679 C118.556,34.923 116.955,35.151 115.349,35.362" id="Path" fill="#202629"></path>
            <path d="M36.133,62.362 C36.633,62.362 37.145,62.312 37.652,62.208 C41.35,61.453 45.063,60.788 48.782,60.212 L48.787,60.215 C45.063,60.791 41.35,61.453 37.652,62.208 C37.145,62.312 36.634,62.362 36.132,62.362 M28.885,57.161 C28.859,57.087 28.838,57.014 28.813,56.939 L22.44,36.215 L28.813,56.939 C28.838,57.014 28.859,57.087 28.885,57.161" id="Shape" fill="#FFD898"></path>
            <path d="M36.127,62.362 L36.107,62.362 C32.895,62.354 29.954,60.295 28.885,57.161 C28.859,57.087 28.838,57.014 28.813,56.939 L22.44,36.215 L22.424,36.163 C22.419,36.158 22.419,36.153 22.419,36.148 L22.404,36.108 L22.404,36.095 L22.374,35.987 C22.374,35.984 22.368,35.982 22.368,35.979 C22.363,35.962 22.358,35.945 22.358,35.928 C22.353,35.927 22.353,35.926 22.353,35.924 C21.723,33.549 22.281,31.088 23.718,29.242 L48.782,60.212 C45.063,60.788 41.35,61.453 37.652,62.208 C37.145,62.312 36.634,62.362 36.132,62.362 L36.127,62.362" id="Path" fill="#202629"></path>
            <path d="M118.305,59.872 C108.075,58.393 97.768,57.59 87.457,57.467 C97.768,57.589 108.07,58.389 118.3,59.867 L118.305,59.872 M64.132,58.353 C70.055,57.833 75.994,57.537 81.932,57.467 C75.994,57.537 70.055,57.833 64.132,58.353 M83.692,19.324 L83.794,19.324 L83.692,19.324 M83.891,19.323 L84,19.323 L83.892,19.323 M84.09,19.323 L84.209,19.323 L84.091,19.323 M84.296,19.322 L84.423,19.322 L84.296,19.322 M84.495,19.322 L84.695,19.322 L84.495,19.322" id="Shape" fill="#FFD898"></path>
            <path d="M84.695,37.368 C71.191,37.368 57.682,36.204 44.327,33.877 L36.577,24.301 C51.637,21.153 66.925,19.496 82.229,19.335 L82.249,19.335 L82.419,19.333 L82.444,19.333 L82.608,19.331 L82.648,19.331 L82.808,19.329 L82.818,19.329 L83.303,19.326 L83.39,19.326 L83.492,19.325 L83.59,19.325 L83.692,19.324 L83.891,19.324 L83.999,19.323 L84.423,19.323 L84.495,19.322 L84.695,19.322 C84.96,19.322 85.226,19.327 85.492,19.328 L99.707,36.889 C94.71,37.209 89.702,37.369 84.695,37.369" id="Path" fill="#202629"></path>
            <path d="M84.695,56.841 C100.5,56.841 116.367,58.446 131.86,61.611 C135.425,62.338 138.924,60.253 139.998,56.76 L146.371,36.036 C147.415,32.648 145.778,28.992 142.566,27.532 C141.395,27.002 140.166,26.582 138.914,26.284 C121.174,22.069 102.934,19.931 84.694,19.931 C66.459,19.931 48.219,22.069 30.48,26.284 C29.227,26.582 28,27.002 26.828,27.532 C23.616,28.992 21.979,32.648 23.023,36.035 L29.396,56.76 C30.47,60.253 33.969,62.34 37.534,61.61 C53.027,58.446 68.894,56.841 84.694,56.841 L84.695,56.841 Z M133.287,62.975 C132.735,62.975 132.177,62.92 131.62,62.805 C116.203,59.657 100.418,58.061 84.695,58.061 C68.976,58.061 53.191,59.657 37.775,62.805 C33.595,63.659 29.493,61.215 28.23,57.119 L21.856,36.395 C20.634,32.422 22.557,28.135 26.327,26.422 C27.565,25.859 28.869,25.414 30.199,25.098 C48.03,20.861 66.367,18.712 84.695,18.712 C103.027,18.712 121.365,20.861 139.195,25.098 C140.525,25.414 141.829,25.859 143.067,26.422 C146.842,28.135 148.76,32.422 147.537,36.395 L141.164,57.119 C140.07,60.666 136.847,62.975 133.287,62.975 L133.287,62.975 Z M40.567,340.294 C38.485,340.294 36.557,341.419 35.534,343.23 L29.913,353.168 C29.443,353.997 29.447,354.984 29.928,355.802 C30.408,356.626 31.263,357.117 32.214,357.117 L137.18,357.117 C138.131,357.117 138.985,356.626 139.466,355.802 C139.947,354.984 139.952,353.997 139.481,353.168 L133.861,343.23 C132.837,341.419 130.909,340.294 128.827,340.294 L40.567,340.294 Z M137.18,358.334 L32.214,358.334 C30.824,358.334 29.575,357.618 28.874,356.416 C28.174,355.219 28.164,353.782 28.849,352.57 L34.47,342.631 C35.713,340.437 38.046,339.076 40.567,339.076 L128.827,339.076 C131.349,339.076 133.681,340.437 134.924,342.631 L140.545,352.57 C141.231,353.782 141.221,355.22 140.52,356.416 C139.82,357.618 138.571,358.334 137.18,358.334 Z" id="Shape" fill="#353535"></path>
            <path d="M26.578,30.938 C27.769,30.398 29.028,29.963 30.338,29.652 C48.209,25.406 66.454,23.282 84.695,23.282 C102.94,23.282 121.185,25.406 139.057,29.652 C140.367,29.963 141.625,30.397 142.817,30.938 C144.965,31.914 146.453,33.781 147.031,35.926 C147.988,32.328 146.233,28.529 142.816,26.977 C141.625,26.437 140.366,26.003 139.056,25.691 C121.186,21.445 102.94,19.321 84.695,19.321 C66.455,19.321 48.209,21.445 30.337,25.691 C29.027,26.003 27.769,26.436 26.577,26.977 C23.161,28.529 21.407,32.328 22.363,35.927 C22.941,33.781 24.429,31.914 26.578,30.938 M101.334,16.825 C100.914,16.825 100.577,16.485 100.577,16.064 L100.577,14.234 C100.577,13.814 100.914,13.473 101.334,13.473 C101.758,13.473 102.101,13.813 102.101,14.235 L102.101,16.064 C102.101,16.484 101.758,16.825 101.334,16.825 M68.209,16.825 C67.789,16.825 67.447,16.485 67.447,16.064 L67.447,14.234 C67.447,13.814 67.789,13.473 68.209,13.473 C68.633,13.473 68.971,13.813 68.971,14.235 L68.971,16.064 C68.971,16.484 68.633,16.825 68.209,16.825" id="Shape" fill="#353535"></path>
        </g>
    </g>
</svg>