<svg xmlns="http://www.w3.org/2000/svg" width="170" height="378" viewBox="0 0 170 378">
    <g fill="none" fill-rule="evenodd">
        <path fill="#D85518" d="M154.878 357.66V59.656c.081.229.081-8.007 0-24.707 0-9.525-6.553-17.787-15.821-19.989-35.739-8.492-72.981-8.492-108.72 0-9.268 2.202-15.82 10.464-15.82 19.989v15.844L15 51c.667 5.333.505 8.219-.484 8.657v298.002c0 10.982 8.906 19.887 19.888 19.887H134.99c10.981 0 19.887-8.905 19.887-19.887z"/>
        <path fill="#333" d="M30.337 6.37c-9.268 2.201-15.82 10.463-15.82 19.988V54.48h140.36V26.358c0-9.525-6.552-17.787-15.82-19.989-35.739-8.492-72.981-8.492-108.72 0"/>
        <path fill="#FFF" d="M24.215 14.865c-.46 0-.906-.23-1.167-.647-.399-.643-.204-1.489.44-1.89 2.015-1.254 4.21-2.17 6.532-2.721 4.962-1.179 10.02-2.209 15.048-3.063.747-.128 1.453.375 1.581 1.122.128.747-.373 1.455-1.12 1.582-4.967.845-9.974 1.863-14.875 3.028-2.03.483-3.954 1.284-5.718 2.382-.225.14-.476.207-.721.207M145.18 14.865c-.246 0-.497-.067-.722-.207-1.764-1.098-3.688-1.9-5.718-2.382-4.9-1.165-9.908-2.183-14.875-3.028-.746-.127-1.248-.835-1.12-1.582.128-.747.834-1.25 1.58-1.122 5.029.854 10.088 1.884 15.05 3.063 2.321.551 4.516 1.467 6.531 2.722.644.4.839 1.246.44 1.89-.261.417-.706.646-1.166.646"/>
        <path fill="#333" d="M14.516 315.48v33.586c0 10.982 8.906 19.887 19.888 19.887H134.99c10.981 0 19.887-8.905 19.887-19.887v-33.585H14.516"/>
        <path fill="#F97334" fill-rule="nonzero" d="M134.99 363.67H34.405c-10.982 0-19.888-8.906-19.888-19.888V30.93c0-9.525 6.553-17.787 15.821-19.989 35.739-8.492 72.981-8.492 108.72 0 9.268 2.202 15.82 10.464 15.82 19.99v312.851c0 10.982-8.905 19.887-19.886 19.887"/>
        <path fill="#D85518" d="M30.337 10.942c-7.013 1.665-12.465 6.8-14.705 13.325L33.35 79.285c33.897-7.586 69.063-7.565 102.95.059l1.657-5.614 15.96-48.999c-2.139-6.745-7.684-12.084-14.86-13.79-35.739-8.492-72.981-8.492-108.72 0"/>
        <path fill="#202629" d="M150.97 45.29l-11.58 34.443v36.88h11.58V45.29zm-11.58 186.847h11.58v-92.05h-11.58v92.05zm11.58 13.462h-11.58v84.132l11.58 12.599V245.6zM18.424 116.614h11.58v-36.88L18.425 45.29v71.324zm0 115.523h11.58v-92.05h-11.58v92.05zm0 13.462h11.58v84.132l-11.58 12.599V245.6z"/>
        <path fill="#4D565A" d="M139.389 150.941L139.389 140.087 150.97 140.087 150.97 141.565 139.389 150.941M150.97 232.137L139.389 232.137 139.389 222.413 150.97 213.037 150.97 232.137"/>
        <path fill="#202629" d="M143.405 334.094L139.389 329.731 139.389 287.773 150.97 278.397 150.97 327.972 143.405 334.094"/>
        <path fill="#4D565A" d="M18.424 248.837L18.424 245.599 22.424 245.599 18.424 248.837M30.005 232.137L18.424 232.137 18.424 231.477 30.005 222.101 30.005 232.137"/>
        <path fill="#202629" d="M139.389 271.988L139.389 245.599 150.97 245.599 150.97 262.612 139.389 271.988"/>
        <path fill="#4D565A" d="M18.424 342.33L18.424 320.314 30.005 310.939 30.005 329.731 18.424 342.33M18.424 215.671L18.424 166.097 30.005 156.721 30.005 206.296 18.424 215.671M18.424 150.312L18.424 140.087 30.005 140.087 30.005 140.941 18.424 150.312M30.005 116.614L18.424 116.614 18.424 100.739 30.005 91.365 30.005 116.614"/>
        <path fill="#FFEC8E" d="M139.389 79.733L144.719 63.882 139.389 79.733"/>
        <path fill="#202629" d="M140.817 116.614L139.389 116.614 139.389 79.733 144.719 63.882 150.97 58.822 150.97 108.396 140.817 116.614M128.73 339.363H40.47c-2.307 0-4.43 1.243-5.565 3.243l-5.621 9.944c-1.228 2.169.337 4.854 2.833 4.854h104.966c2.496 0 4.061-2.685 2.834-4.854l-5.622-9.944c-1.135-2-3.258-3.243-5.565-3.243M84.598 19c18.245 0 36.49 2.123 54.362 6.37 1.31.31 2.568.744 3.76 1.286 3.508 1.593 5.273 5.556 4.138 9.237l-6.374 20.724c-1.16 3.765-4.982 6.057-8.838 5.27-15.525-3.17-31.284-4.758-47.048-4.758-15.76 0-31.52 1.588-47.043 4.757-3.857.788-7.678-1.504-8.839-5.269l-6.373-20.724c-1.136-3.68.629-7.645 4.138-9.237 1.192-.542 2.45-.975 3.76-1.287C48.111 21.123 66.356 19 84.597 19"/>
        <path fill="#FFF" fill-rule="nonzero" d="M117.672 200.645L117.672 227.034 98.027 227.034 98.027 246.672 71.639 246.672 71.639 227.034 52 227.034 52 200.645 71.639 200.645 71.639 181 98.027 181 98.027 200.645z"/>
        <g>
            <path fill="#D85518" d="M23.361 18.426H3.997C1.789 18.426 0 16.636 0 14.429V3.997C0 1.789 1.79 0 3.997 0H23.36v18.426" transform="translate(40 87)"/>
            <path fill="#CDCFD1" d="M23.361 18.426L66.593 18.426 66.593 0 23.361 0z" transform="translate(40 87)"/>
            <path fill="#E8E9EA" d="M23.361 14.608L66.593 14.608 66.593 3.817 23.361 3.817z" transform="translate(40 87)"/>
            <path fill="#F97334" fill-rule="nonzero" d="M4.84 14.608L18.521 14.608 18.521 3.817 4.84 3.817z" transform="translate(40 87)"/>
            <path fill="#D85518" d="M85.958 18.426H66.593V0h19.365c2.207 0 3.995 1.79 3.995 3.997v10.432c0 2.207-1.788 3.997-3.995 3.997" transform="translate(40 87)"/>
            <path fill="#F97334" fill-rule="nonzero" d="M71.434 14.608L85.112 14.608 85.112 3.817 71.434 3.817z" transform="translate(40 87)"/>
        </g>
        <path fill="#FFED98" d="M32.45 347.445L32.45 347.445 35.002 342.928 32.45 347.445"/>
        <path fill="#202629" d="M59.314 357.726H40.772l-8.322-10.281 2.552-4.517c1.136-2 3.258-3.243 5.565-3.243h4.149l14.598 18.04"/>
        <path fill="#FFED98" d="M135.251 344.452L135.251 344.452 134.392 342.928 135.251 344.452"/>
        <path fill="#A5D0DC" d="M135.251 344.452l-3.1-3.83c.845.51 1.571 1.222 2.108 2.086.01.015.015.03.026.04 0 .006.005.006.005.011.01.01.015.026.02.036.005.005.01.01.01.015l.016.031c.01.005.015.015.02.026 0 .005.005.01.01.015.006.015.016.03.026.046l.86 1.524"/>
        <path fill="#202629" d="M129.139 357.726L76.193 357.726 61.595 339.685 114.536 339.685 129.139 357.726M30.337 25.69c-1.31.312-2.568.746-3.76 1.287-.767.35-1.447.819-2.04 1.368.593.55 1.273 1.018 2.04 1.367 1.192.541 2.45.975 3.76 1.287 17.872 4.246 36.117 6.37 54.358 6.37 18.245 0 36.49-2.124 54.362-6.37 1.31-.312 2.568-.746 3.76-1.287.767-.349 1.447-.817 2.04-1.367-.593-.55-1.273-1.018-2.04-1.368-1.192-.54-2.45-.975-3.76-1.286-17.872-4.246-36.117-6.37-54.362-6.37-18.24 0-36.486 2.124-54.358 6.37"/>
        <path fill="#353535" d="M19.033 246.213v94.551l10.363-11.273v-83.278H19.033zm-.609 96.725c-.076 0-.153-.015-.225-.04-.23-.093-.388-.318-.388-.568V245.6c0-.333.276-.61.613-.61h11.58c.338 0 .61.277.61.61v84.131c0 .149-.057.297-.16.41L18.87 342.738c-.117.128-.281.2-.445.2zM19.033 231.528h10.363v-90.833H19.033v90.833zm10.972 1.222h-11.58c-.338 0-.614-.276-.614-.613v-92.05c0-.338.276-.609.613-.609h11.58c.338 0 .61.271.61.609v92.05c0 .337-.272.613-.61.613zM19.033 116.005h10.363V79.833L19.033 49.015v66.99zm10.972 1.218h-11.58c-.338 0-.614-.272-.614-.61V45.29c0-.3.22-.554.511-.602.297-.048.583.124.68.407l11.58 34.444c.021.063.031.128.031.194v36.88c0 .338-.27.61-.608.61zM139.998 329.49l10.363 11.274v-94.55h-10.363v83.277zm10.972 13.448c-.164 0-.328-.071-.445-.2l-11.586-12.598c-.102-.112-.158-.26-.158-.409V245.6c0-.332.27-.608.608-.608h11.58c.338 0 .615.276.615.608v96.73c0 .251-.159.476-.39.568-.07.026-.147.041-.224.041zM139.998 231.528h10.363v-90.833h-10.363v90.833zm10.972 1.222h-11.58c-.338 0-.61-.276-.61-.613v-92.05c0-.338.272-.609.61-.609h11.58c.337 0 .614.271.614.609v92.05c0 .337-.277.613-.614.613zM139.998 116.005h10.363v-66.99l-10.363 30.818v36.172zm10.972 1.218h-11.58c-.338 0-.61-.272-.61-.61v-36.88c0-.066.011-.131.031-.194l11.58-34.444c.098-.283.384-.455.681-.407.292.048.512.303.512.602v71.324c0 .337-.277.609-.614.609z"/>
        <path fill="#D85518" d="M15.995 23.283c-.317.794-.589 1.612-.809 2.45L32.838 80.31v43.009H14.516v1.524h18.322v7.621H14.516v1.525h18.322v104.244H14.516v1.524h18.322v97.339c-.741.752-1.416 1.58-2.01 2.476L19.381 356.8c.343.394.695.777 1.069 1.146l11.647-17.53c2.818-4.245 7.544-6.777 12.639-6.777h79.922c5.095 0 9.821 2.532 12.64 6.777l11.646 17.53c.374-.369.727-.752 1.07-1.146l-11.448-17.227c-.593-.896-1.269-1.724-2.01-2.476v-97.339h18.322v-1.524h-18.322V133.99h18.322v-1.525h-18.322v-7.621h18.322v-1.524h-18.322V80.31l17.652-54.578c-.22-.837-.491-1.655-.809-2.45l-18.332 56.674-.036.114v255.656c-2.91-2.307-6.542-3.611-10.373-3.611H44.736c-3.831 0-7.463 1.304-10.373 3.611V80.07L15.995 23.283"/>
        <path fill="#F97334" fill-rule="nonzero" d="M150.97 53.672v-12.83l12.798 4.456c3.365 1.173 5.626 4.35 5.626 7.917 0 .884-.885 1.496-1.713 1.184l-10.103-3.158c-2.5-.781-5.212.217-6.608 2.43"/>
        <path fill="#D41200" d="M150.97 44.652l12.798 4.456c2.445.852 4.296 2.76 5.135 5.105.292-.227.491-.582.491-.998 0-3.567-2.26-6.744-5.626-7.917l-12.798-4.456v3.81"/>
        <path fill="#353535" d="M150.97 54.281c-.333 0-.609-.272-.609-.61V40.843c0-.337.276-.61.609-.61.337 0 .614.273.614.61v12.83c0 .337-.277.61-.614.61"/>
        <path fill="#F97334" fill-rule="nonzero" d="M18.424 53.672v-12.83L5.627 45.298C2.26 46.47 0 49.648 0 53.215c0 .884.885 1.496 1.714 1.184l10.102-3.158c2.5-.781 5.212.217 6.608 2.43"/>
        <path fill="#D41200" d="M18.424 44.652L5.627 49.108c-2.445.852-4.297 2.76-5.136 5.105-.292-.227-.491-.582-.491-.998 0-3.567 2.26-6.744 5.627-7.917l12.797-4.456v3.81"/>
        <path fill="#353535" d="M18.424 54.281c-.337 0-.613-.272-.613-.61V40.843c0-.337.276-.61.613-.61.333 0 .609.273.609.61v12.83c0 .337-.276.61-.609.61"/>
        <path fill="#FFD898" d="M138.852 59.925c.773-.828 1.376-1.839 1.73-2.986l2.966-9.647-2.967 9.647c-.353 1.147-.956 2.158-1.729 2.986"/>
        <path fill="#202629" d="M115.349 35.362l-12.404-15.326c6.885.536 13.754 1.377 20.583 2.52l8.153 10.07c-1.626.333-3.258.647-4.89.943-2.204.403-4.42.772-6.634 1.11-1.601.244-3.202.472-4.808.683"/>
        <path fill="#FFD898" d="M36.133 62.362c.5 0 1.012-.05 1.519-.154 3.698-.755 7.411-1.42 11.13-1.996l.005.003c-3.724.576-7.437 1.238-11.135 1.993-.507.104-1.018.154-1.52.154m-7.247-5.201c-.026-.074-.047-.147-.072-.222L22.44 36.215l6.373 20.724c.025.075.046.148.072.222"/>
        <path fill="#202629" d="M36.127 62.362h-.02c-3.212-.008-6.153-2.067-7.222-5.201-.026-.074-.047-.147-.072-.222L22.44 36.215l-.016-.052c-.005-.005-.005-.01-.005-.015l-.015-.04v-.013l-.03-.108c0-.003-.006-.005-.006-.008-.005-.017-.01-.034-.01-.051-.005-.001-.005-.002-.005-.004-.63-2.375-.072-4.836 1.365-6.682l25.064 30.97c-3.719.576-7.432 1.241-11.13 1.996-.507.104-1.018.154-1.52.154h-.005"/>
        <path fill="#FFD898" d="M118.305 59.872c-10.23-1.479-20.537-2.282-30.848-2.405 10.311.122 20.613.922 30.843 2.4l.005.005m-54.173-1.519c5.923-.52 11.862-.816 17.8-.886-5.938.07-11.877.366-17.8.886M82.23 19.335h.02-.02M82.418 19.333h.026-.026M82.608 19.33h.04-.04M82.807 19.33h.01-.01M83.303 19.326h.087-.087M83.492 19.325h.098-.098M83.692 19.324h.102-.102M83.891 19.323H84h-.108M84.09 19.323h.119-.118M84.296 19.322h.127-.127M84.495 19.322h.2-.2"/>
        <path fill="#202629" d="M84.695 37.368c-13.504 0-27.013-1.164-40.368-3.491l-7.75-9.576c15.06-3.148 30.348-4.805 45.652-4.966h.02l.17-.002h.025l.164-.002h.04l.16-.002h.01l.485-.003h.087l.102-.001h.098l.102-.001h.199l.108-.001h.424l.072-.001h.2c.265 0 .531.005.797.006l14.215 17.561c-4.997.32-10.005.48-15.012.48"/>
        <path fill="#353535" d="M84.695 56.841c15.805 0 31.672 1.605 47.165 4.77 3.565.727 7.064-1.358 8.138-4.851l6.373-20.724c1.044-3.388-.593-7.044-3.805-8.504-1.171-.53-2.4-.95-3.652-1.248-17.74-4.215-35.98-6.353-54.22-6.353-18.235 0-36.475 2.138-54.214 6.353-1.253.298-2.48.718-3.652 1.248-3.212 1.46-4.849 5.116-3.805 8.503l6.373 20.725c1.074 3.493 4.573 5.58 8.138 4.85 15.493-3.164 31.36-4.769 47.16-4.769zm48.592 6.134c-.552 0-1.11-.055-1.667-.17-15.417-3.148-31.202-4.744-46.925-4.744-15.719 0-31.504 1.596-46.92 4.744-4.18.854-8.282-1.59-9.545-5.686l-6.374-20.724c-1.222-3.973.701-8.26 4.471-9.973 1.238-.563 2.542-1.008 3.872-1.324 17.831-4.237 36.168-6.386 54.496-6.386 18.332 0 36.67 2.149 54.5 6.386 1.33.316 2.634.761 3.872 1.324 3.775 1.713 5.693 6 4.47 9.973l-6.373 20.724c-1.094 3.547-4.317 5.856-7.877 5.856zM40.567 340.294c-2.082 0-4.01 1.125-5.033 2.936l-5.621 9.938c-.47.829-.466 1.816.015 2.634.48.824 1.335 1.315 2.286 1.315H137.18c.951 0 1.805-.491 2.286-1.315.481-.818.486-1.805.015-2.634l-5.62-9.938c-1.024-1.811-2.952-2.936-5.034-2.936h-88.26zm96.613 18.04H32.214c-1.39 0-2.639-.716-3.34-1.918-.7-1.197-.71-2.634-.025-3.846l5.621-9.939c1.243-2.194 3.576-3.555 6.097-3.555h88.26c2.522 0 4.854 1.361 6.097 3.555l5.621 9.939c.686 1.212.676 2.65-.025 3.846-.7 1.202-1.949 1.918-3.34 1.918z"/>
        <path fill="#353535" d="M26.578 30.938c1.191-.54 2.45-.975 3.76-1.286 17.871-4.246 36.116-6.37 54.357-6.37 18.245 0 36.49 2.124 54.362 6.37 1.31.311 2.568.745 3.76 1.286 2.148.976 3.636 2.843 4.214 4.988.957-3.598-.798-7.397-4.215-8.949-1.191-.54-2.45-.974-3.76-1.286-17.87-4.246-36.116-6.37-54.361-6.37-18.24 0-36.486 2.124-54.358 6.37-1.31.312-2.568.745-3.76 1.286-3.416 1.552-5.17 5.351-4.214 8.95.578-2.146 2.066-4.013 4.215-4.989M101.334 16.825c-.42 0-.757-.34-.757-.761v-1.83c0-.42.337-.761.757-.761.424 0 .767.34.767.762v1.829c0 .42-.343.761-.767.761M68.209 16.825c-.42 0-.762-.34-.762-.761v-1.83c0-.42.342-.761.762-.761.424 0 .762.34.762.762v1.829c0 .42-.338.761-.762.761"/>
    </g>
</svg>
