<?xml version="1.0" encoding="UTF-8"?>
<svg width="160px" height="378px" viewBox="0 0 160 378" version="1.1" xmlns="http://www.w3.org/2000/svg" xmlns:xlink="http://www.w3.org/1999/xlink">
    <g id="Page-1" stroke="none" stroke-width="1" fill="none" fill-rule="evenodd">
        <g id="bls-device-malfunctioning-(1)" fill-rule="nonzero">
            <path d="M41.856,145.956 L113.764,145.956 L113.764,74.05 L41.856,74.05 L41.856,145.956 Z M41.856,289.771 L113.764,289.771 L113.764,217.864 L41.856,217.864 L41.856,289.771 Z" id="Shape" fill="#E5E8EA"></path>
            <path d="M91.459,145.956 L41.856,145.956 L41.856,74.05 L90.952,74.05 C91.459,88.58 91.459,103.502 91.459,111.734 L91.459,113.868 C93.305,114.538 95.443,115.522 97.494,116.952 C102.711,120.594 102.877,125.16 101.951,126.247 C101.883,126.329 101.761,126.367 101.601,126.367 C99.934,126.367 93.816,122.482 91.459,120.787 L91.459,145.957 M99.554,289.771 L41.856,289.771 L41.856,217.864 L99.754,217.864 L99.754,249.837 C99.754,263.713 99.691,277.117 99.554,289.771" id="Shape" fill="#939DA6"></path>
            <path d="M64.63,147.086 L64.63,377.492 C106.814,378.406 146.398,374.292 149.063,370.317 C154.593,362.055 156.63,302.856 156.63,230.943 L156.63,155.123 C156.63,150.685 152.334,147.086 147.026,147.086 L64.63,147.086" id="Path" fill="#801D19"></path>
            <path d="M143.346,223.693 L143.346,156.341 C143.346,149.401 128.187,147.086 117.397,147.086 L148.592,147.086 C153.035,147.086 156.63,150.685 156.63,155.124 L156.63,230.941 C156.63,302.856 154.93,362.052 150.292,370.317 C148.071,374.29 114.932,378.405 79.632,377.492 L79.632,344.619 C108.347,344.619 135.981,343.153 139.391,339.892 C142.805,336.63 143.346,268.375 143.346,223.693" id="Path" fill="#5F100D"></path>
            <path d="M79.632,147.086 L10.67,147.086 C6.232,147.086 2.632,150.685 2.632,155.124 L2.632,230.943 C2.632,302.856 4.337,362.055 8.965,370.317 C11.196,374.292 44.325,378.407 79.631,377.492 L79.631,147.086" id="Path" fill="#801D19"></path>
            <path d="M15.917,223.693 L15.917,156.341 C15.917,149.401 31.077,147.086 41.866,147.086 L10.67,147.086 C6.232,147.086 2.632,150.685 2.632,155.124 L2.632,230.941 C2.632,302.856 4.337,362.052 8.97,370.317 C11.191,374.29 44.33,378.405 79.63,377.492 L79.63,344.619 C50.92,344.619 23.286,343.153 19.871,339.892 C16.457,336.629 15.916,268.375 15.916,223.693" id="Path" fill="#5F100D"></path>
            <g id="hbj4vxv1rb-link" transform="translate(2.000000, 148.000000)" fill="#000000">
                <path d="M77.632,227.299 L77.632,229.491 C42.33,230.407 9.197,226.291 6.971,222.316 C2.338,214.055 0.633,154.856 0.633,82.943 L0.633,7.123 C0.633,4.433 1.953,2.051 3.985,0.593 C4.662,0.106 4.74,43.901 4.74,110.31 C4.74,176.72 7.667,215.296 9.64,219.549 C11.618,223.801 43.144,227.299 77.632,227.299" id="hbj4vxv1rb"></path>
            </g>
            <g id="hbj4vxv1rb-link" transform="translate(2.000000, 148.000000)" fill="#801D19">
                <path d="M77.632,227.299 L77.632,229.491 C42.33,230.407 9.197,226.291 6.971,222.316 C2.338,214.055 0.633,154.856 0.633,82.943 L0.633,7.123 C0.633,4.433 1.953,2.051 3.985,0.593 C4.662,0.106 4.74,43.901 4.74,110.31 C4.74,176.72 7.667,215.296 9.64,219.549 C11.618,223.801 43.144,227.299 77.632,227.299" id="hbj4vxv1rb"></path>
            </g>
            <path d="M148.339,147.086 L148.339,92.84 C148.339,75.391 148.339,27.875 143.502,17.764 C138.665,7.654 110.237,0.244 79.632,0.244 L79.632,147.086 L148.339,147.086" id="Path" fill="#801D19"></path>
            <g id="do6jx3jrcd-link" transform="translate(79.000000, 0.000000)" fill="#000000">
                <path d="M69.339,92.84 C69.339,75.391 69.339,27.875 64.497,17.764 C59.665,7.653 31.232,0.244 0.632,0.244 L0.632,5.788 C37.511,5.788 53.025,15.807 57.078,21.145 C58.428,22.927 61.993,65.988 62.057,81.751 L54.389,107.354 L57.487,115.834 L57.487,147.086 L69.339,147.086 L69.339,92.84" id="do6jx3jrcd"></path>
            </g>
            <g id="do6jx3jrcd-link" transform="translate(79.000000, 0.000000)" fill="#5F100D">
                <path d="M69.339,92.84 C69.339,75.391 69.339,27.875 64.497,17.764 C59.665,7.653 31.232,0.244 0.632,0.244 L0.632,5.788 C37.511,5.788 53.025,15.807 57.078,21.145 C58.428,22.927 61.993,65.988 62.057,81.751 L54.389,107.354 L57.487,115.834 L57.487,147.086 L69.339,147.086 L69.339,92.84" id="do6jx3jrcd"></path>
            </g>
            <path d="M79.632,0.244 C49.026,0.244 20.598,7.654 15.762,17.764 C10.924,27.874 10.924,75.391 10.924,92.84 L10.924,147.086 L79.632,147.086 L79.632,0.244" id="Path" fill="#801D19"></path>
            <path d="M22.776,136.47 L22.776,115.834 L25.874,107.354 L18.207,81.751 C18.27,65.988 21.836,22.927 23.185,21.145 C27.238,15.807 42.752,5.788 79.632,5.788 L79.632,0.244 C49.032,0.244 20.598,7.653 15.766,17.764 C10.924,27.874 10.924,75.391 10.924,92.84 L10.924,147.086 L22.776,147.086 L22.776,136.47" id="Path" fill="#5F100D"></path>
            <g id="1yconm6uif-link" transform="translate(11.000000, 0.000000)" fill="#000000">
                <path d="M68.636,0.244 L68.636,2.192 L68.632,2.192 C43.76,2.192 20.846,6.868 13.612,12.748 C6.378,18.632 5.053,32.14 4.322,43.1 C3.738,51.815 3.612,71.01 3.582,78.507 L0.012,74.527 C0.251,53.398 1.176,25.268 4.766,17.765 C9.598,7.653 38.036,0.244 68.632,0.244 L68.636,0.244" id="1yconm6uif"></path>
            </g>
            <g id="1yconm6uif-link" transform="translate(11.000000, 0.000000)" fill="#801D19">
                <path d="M68.636,0.244 L68.636,2.192 L68.632,2.192 C43.76,2.192 20.846,6.868 13.612,12.748 C6.378,18.632 5.053,32.14 4.322,43.1 C3.738,51.815 3.612,71.01 3.582,78.507 L0.012,74.527 C0.251,53.398 1.176,25.268 4.766,17.765 C9.598,7.653 38.036,0.244 68.632,0.244 L68.636,0.244" id="1yconm6uif"></path>
            </g>
            <g id="67snyiuqih-link" transform="translate(79.000000, 148.000000)" fill="#000000">
                <path d="M0.641,227.299 L0.641,229.491 C35.942,230.407 69.076,226.291 71.301,222.316 C75.934,214.055 77.639,154.856 77.639,82.943 L77.639,7.123 C77.639,4.536 76.149,1.745 73.942,0.365 C73.212,-0.203 73.874,76.335 73.874,113.092 C73.874,149.848 70.605,215.296 68.633,219.549 C66.655,223.801 35.129,227.299 0.641,227.299" id="67snyiuqih"></path>
            </g>
            <g id="67snyiuqih-link" transform="translate(79.000000, 148.000000)" fill="#801D19">
                <path d="M0.641,227.299 L0.641,229.491 C35.942,230.407 69.076,226.291 71.301,222.316 C75.934,214.055 77.639,154.856 77.639,82.943 L77.639,7.123 C77.639,4.536 76.149,1.745 73.942,0.365 C73.212,-0.203 73.874,76.335 73.874,113.092 C73.874,149.848 70.605,215.296 68.633,219.549 C66.655,223.801 35.129,227.299 0.641,227.299" id="67snyiuqih"></path>
            </g>
            <path d="M79.636,0.244 L79.636,2.192 L79.641,2.192 C104.513,2.192 127.427,6.868 134.661,12.748 C141.894,18.632 143.219,32.14 143.95,43.1 C144.53,51.815 144.656,71.01 144.686,78.507 L148.261,74.527 C148.022,53.398 147.097,25.268 143.507,17.765 C138.675,7.653 110.237,0.244 79.64,0.244 L79.635,0.244" id="Path" fill="#801D19"></path>
            <path d="M143.336,93.656 C143.336,93.656 149.152,94.416 154.374,98.059 C159.591,101.701 159.752,106.267 158.831,107.354 C157.906,108.441 147.847,101.754 147.413,101.157 C146.98,100.559 146.814,98.493 146.001,98.004 C145.187,97.514 143.336,96.917 143.336,96.917 L143.336,93.656 M15.927,93.656 C15.927,93.656 10.111,94.416 4.889,98.059 C-0.328,101.7 -0.49,106.267 0.432,107.354 C1.357,108.441 11.416,101.754 11.85,101.157 C12.283,100.559 12.449,98.493 13.262,98.004 C14.076,97.514 15.927,96.917 15.927,96.917 L15.927,93.656" id="Shape" fill="#801D19"></path>
            <path d="M143.336,142.339 L143.336,93.166 L136.487,115.834 L136.487,136.469 L143.336,142.339 M135.752,365.261 C137.422,363.902 137.364,350.585 133.428,349.933 C129.498,349.28 106.165,351.074 79.632,351.074 L79.632,369.774 C110.091,369.774 134.081,366.621 135.752,365.261" id="Shape" fill="#2F405C"></path>
            <path d="M79.632,60.388 C29.785,60.388 18.207,81.751 18.207,81.751 L25.874,107.354 C25.874,107.354 49.245,96.754 79.632,96.754 L79.632,60.388" id="Path" fill="#233044"></path>
            <path d="M79.632,66.017 C36.122,66.017 22.327,83.553 22.327,83.553 L28.524,103.525 C28.524,103.525 50.746,94.432 79.632,94.432 L79.632,66.017 M79.632,60.388 C129.478,60.388 141.057,81.751 141.057,81.751 L133.394,107.354 C133.394,107.354 110.018,96.754 79.632,96.754 L79.632,60.388" id="Shape" fill="#2F405C"></path>
            <path d="M79.632,66.017 C123.145,66.017 136.94,83.553 136.94,83.553 L130.744,103.525 C130.744,103.525 108.522,94.432 79.632,94.432 L79.632,66.017" id="Path" fill="#276379"></path>
            <polyline id="Path" fill="#233044" points="15.927 142.339 15.927 93.166 22.776 115.834 22.776 136.469 15.927 142.339"></polyline>
            <path d="M113.983,56.152 C113.983,56.152 100.558,51.504 79.632,51.504 C58.71,51.504 45.28,56.152 45.28,56.152 L46.04,59.892 C46.04,59.892 58.759,55.575 79.632,55.574 C100.504,55.574 113.222,59.892 113.222,59.892 L113.982,56.152" id="Path" fill="#2F405C"></path>
            <path d="M23.156,365.261 C21.485,363.902 22.683,350.585 26.614,349.933 C30.55,349.28 53.098,351.074 79.632,351.074 L79.632,369.774 C49.172,369.774 24.832,366.621 23.156,365.261" id="Path" fill="#233044"></path>
            <path d="M132.99,364.307 C134.578,363.362 134.524,354.954 130.783,354.501 C127.043,354.048 104.859,355.294 79.627,355.294 L79.627,368.284 C108.59,368.284 131.402,365.25 132.99,364.307" id="Path" fill="#276379"></path>
            <path d="M25.937,364.307 C24.349,363.362 25.484,354.954 29.225,354.501 C32.961,354.048 54.404,355.294 79.632,355.294 L79.632,368.284 C50.672,368.284 27.525,365.25 25.937,364.307" id="Path" fill="#2F405C"></path>
            <path d="M36.395,7.428 C34.267,8.337 23.525,12.91 20.881,17.218 C18.231,21.524 17.247,27.141 13.452,27.141 C13.452,27.141 14.344,20.54 15.766,17.765 C18.202,12.665 26.634,8.257 38.324,5.139 C38.358,5.407 38.524,6.52 36.395,7.429" id="Path" fill="#40413C"></path>
            <path d="M30.58,375.59 C18.323,374.187 10.038,372.234 8.97,370.319 C8.528,369.529 8.114,368.279 7.719,366.593 L7.719,366.578 C10.807,366.358 10.914,367.587 12.653,368.546 C14.393,369.505 17.281,370.48 20.545,371.071 C23.808,371.661 30.579,372.506 30.579,375.59" id="Path" fill="#233044"></path>
            <path d="M128.689,375.587 C140.944,374.184 149.225,372.231 150.297,370.317 C150.735,369.527 151.154,368.276 151.544,366.59 L151.544,366.576 C148.456,366.357 148.081,367.825 146.342,368.784 C144.602,369.743 141.208,370.638 137.944,371.229 C134.685,371.819 128.689,372.1 128.689,375.587" id="Path" fill="#2F405C"></path>
            <path d="M83.036,68.787 C80.986,70.192 80.908,76.186 82.491,79.108 C84.074,82.031 86.811,83.066 92.233,80.691 C97.65,78.317 101.771,76.669 106.193,78.235 C110.617,79.802 110.549,81.464 115.415,83.284 C120.281,85.104 125.995,82.731 129.005,85.532 C132.021,88.332 127.822,96.614 129.434,97.283 C131.046,97.953 135.231,86.73 134.393,84.142 C133.555,81.555 125.6,76.365 113.267,72.633 C100.933,68.903 85.087,67.383 83.037,68.787" id="Path" fill="#327F93"></path>
            <polygon id="Path" fill="#801D19" points="22.776 147.086 136.487 147.086 136.487 141.119 22.776 141.119"></polygon>
            <path d="M79.632,147.086 L79.632,377.492 L79.632,147.086 M79.632,147.086 L79.632,0.244 L79.632,147.086" id="Shape" fill="#E8E9EA"></path>
            <path d="M122.873,7.427 C125.001,8.336 135.547,12.577 138.197,16.884 C140.842,21.191 141.977,27.146 145.777,27.146 C145.777,27.146 145.002,20.55 143.502,17.764 C141.066,12.664 132.634,8.256 120.944,5.138 C120.91,5.406 120.744,6.518 122.873,7.427" id="Path" fill="#40413C"></path>
            <polyline id="Path" fill="#5F100D" points="37.233 123.13 22.776 133.544 22.776 147.03 110.32 147.03 124.451 137.228 117.923 127.802 37.233 123.13"></polyline>
            <path d="M70.23,138.828 L39.264,138.828 C36.722,138.828 34.666,136.768 34.666,134.228 L34.666,127.024 C34.666,124.484 36.722,122.424 39.264,122.424 L70.23,122.424 L70.23,138.828 M121.158,138.828 L90.192,138.828 L90.192,122.424 L121.158,122.424 C123.701,122.424 125.761,124.484 125.761,127.024 L125.761,134.228 C125.761,136.768 123.701,138.828 121.158,138.828" id="Shape" fill="#460502"></path>
            <polygon id="Path" fill="#CDCFD1" points="64.906 138.828 95.516 138.828 95.516 122.424 64.906 122.424"></polygon>
            <path d="M64.906,135.361 L46.216,135.361 C45.149,135.361 44.286,134.496 44.286,133.429 L44.286,127.822 C44.286,126.756 45.149,125.891 46.216,125.891 L64.906,125.891 L64.906,135.361 M114.207,135.361 L95.517,135.361 L95.517,125.891 L114.207,125.891 C115.274,125.891 116.141,126.756 116.141,127.822 L116.141,133.429 C116.141,134.496 115.274,135.361 114.207,135.361" id="Shape" fill="#801D19"></path>
            <polygon id="Path" fill="#E8E9EA" points="64.906 135.361 95.516 135.361 95.516 125.891 64.906 125.891"></polygon>
            <polyline id="Path" fill="#FFFFFF" points="108.241 234.554 89.79 234.554 89.79 216.104 74.692 216.104 74.692 234.554 56.241 234.554 56.241 249.653 74.692 249.653 74.692 268.104 89.79 268.104 89.79 249.653 108.241 249.653 108.241 234.554"></polyline>
        </g>
    </g>
</svg>