<svg xmlns="http://www.w3.org/2000/svg" xmlns:xlink="http://www.w3.org/1999/xlink" width="179" height="402" viewBox="0 0 179 402">
    <defs>
        <filter id="vc51ttr96a" width="150.7%" height="117%" x="-25.3%" y="-7.2%" filterUnits="objectBoundingBox">
            <feOffset dy="3" in="SourceAlpha" result="shadowOffsetOuter1"/>
            <feGaussianBlur in="shadowOffsetOuter1" result="shadowBlurOuter1" stdDeviation="6"/>
            <feColorMatrix in="shadowBlurOuter1" values="0 0 0 0 0 0 0 0 0 0 0 0 0 0 0 0 0 0 0.19 0"/>
        </filter>
        <filter id="n0oqg22n3c" width="156.8%" height="126.6%" x="-28.4%" y="-11.2%" filterUnits="objectBoundingBox">
            <feOffset dy="3" in="SourceAlpha" result="shadowOffsetOuter1"/>
            <feGaussianBlur in="shadowOffsetOuter1" result="shadowBlurOuter1" stdDeviation="6"/>
            <feColorMatrix in="shadowBlurOuter1" values="0 0 0 0 0 0 0 0 0 0 0 0 0 0 0 0 0 0 0.19 0"/>
        </filter>
        <filter id="jz1i7djule" width="156.8%" height="149.8%" x="-28.4%" y="-21.1%" filterUnits="objectBoundingBox">
            <feOffset dy="3" in="SourceAlpha" result="shadowOffsetOuter1"/>
            <feGaussianBlur in="shadowOffsetOuter1" result="shadowBlurOuter1" stdDeviation="6"/>
            <feColorMatrix in="shadowBlurOuter1" values="0 0 0 0 0 0 0 0 0 0 0 0 0 0 0 0 0 0 0.19 0"/>
        </filter>
        <filter id="uh6kwjyo4g" width="150.7%" height="117%" x="-25.3%" y="-7.2%" filterUnits="objectBoundingBox">
            <feOffset dy="3" in="SourceAlpha" result="shadowOffsetOuter1"/>
            <feGaussianBlur in="shadowOffsetOuter1" result="shadowBlurOuter1" stdDeviation="6"/>
            <feColorMatrix in="shadowBlurOuter1" values="0 0 0 0 0 0 0 0 0 0 0 0 0 0 0 0 0 0 0.19 0"/>
        </filter>
        <path id="upbusuxbkb" d="M79.632 375.299v2.192c-35.302.916-68.435-3.2-70.661-7.175-4.633-8.261-6.338-67.46-6.338-139.373v-75.82c0-2.69 1.32-5.072 3.352-6.53.677-.487.755 43.308.755 109.717 0 66.41 2.927 104.986 4.9 109.239 1.978 4.252 33.504 7.75 67.992 7.75"/>
        <path id="sien2g0txd" d="M148.339 92.84c0-17.449 0-64.965-4.842-75.076C138.665 7.653 110.232.244 79.632.244v5.544c36.879 0 52.393 10.019 56.446 15.357 1.35 1.782 4.915 44.843 4.979 60.606l-7.668 25.603 3.098 8.48V147.086h11.852V92.84"/>
        <path id="sqlp5jo8af" d="M79.636.244v1.948h-.004c-24.872 0-47.786 4.676-55.02 10.556-7.234 5.884-8.559 19.392-9.29 30.352-.584 8.715-.71 27.91-.74 35.407l-3.57-3.98c.239-21.129 1.164-49.259 4.754-56.762C20.598 7.653 49.036.244 79.632.244h.004"/>
        <path id="68q7ja0gnh" d="M79.641 375.299v2.192c35.301.916 68.435-3.2 70.66-7.175 4.633-8.261 6.338-67.46 6.338-139.373v-75.82c0-2.587-1.49-5.378-3.697-6.758-.73-.568-.068 75.97-.068 112.727 0 36.756-3.269 102.204-5.241 106.457-1.978 4.252-33.504 7.75-67.992 7.75"/>
    </defs>
    <g fill="none" fill-rule="evenodd" transform="translate(10 9)">
        <path fill="#E5E8EA" d="M41.856 145.956L113.764 145.956 113.764 74.05 41.856 74.05zM41.856 289.771L113.764 289.771 113.764 217.864 41.856 217.864z"/>
        <path fill="#939DA6" d="M91.459 145.956H41.856V74.05h49.096c.507 14.53.507 29.452.507 37.684v2.134c1.846.67 3.984 1.654 6.035 3.084 5.217 3.642 5.383 8.208 4.457 9.295-.068.082-.19.12-.35.12-1.667 0-7.785-3.885-10.142-5.58v25.17M99.554 289.771H41.856v-71.907h57.898v31.973c0 13.876-.063 27.28-.2 39.934"/>
        <path fill="#8EC437" d="M64.63 147.086v230.406c42.184.914 81.768-3.2 84.433-7.175 5.53-8.262 7.567-67.461 7.567-139.374v-75.82c0-4.438-4.296-8.037-9.604-8.037H64.63"/>
        <path fill="#63971A" d="M143.346 223.693v-67.352c0-6.94-15.159-9.255-25.949-9.255h31.195c4.443 0 8.038 3.599 8.038 8.038v75.817c0 71.915-1.7 131.111-6.338 139.376-2.221 3.973-35.36 8.088-70.66 7.175v-32.873c28.715 0 56.349-1.466 59.759-4.727 3.414-3.262 3.955-71.517 3.955-116.199"/>
        <path fill="#8EC437" d="M79.632 147.086H10.67c-4.438 0-8.038 3.599-8.038 8.038v75.819c0 71.913 1.705 131.112 6.333 139.374 2.231 3.975 35.36 8.09 70.666 7.175V147.086"/>
        <path fill="#63971A" d="M15.917 223.693v-67.352c0-6.94 15.16-9.255 25.949-9.255H10.67c-4.438 0-8.038 3.599-8.038 8.038v75.817c0 71.915 1.705 131.111 6.338 139.376 2.221 3.973 35.36 8.088 70.66 7.175v-32.873c-28.71 0-56.344-1.466-59.759-4.727-3.414-3.263-3.955-71.517-3.955-116.199"/>
        <use fill="#000" filter="url(#vc51ttr96a)" xlink:href="#upbusuxbkb"/>
        <use fill="#5F9119" xlink:href="#upbusuxbkb"/>
        <path fill="#8EC437" d="M148.339 147.086V92.84c0-17.449 0-64.965-4.837-75.076-4.837-10.11-33.265-17.52-63.87-17.52v146.842h68.707"/>
        <use fill="#000" filter="url(#n0oqg22n3c)" xlink:href="#sien2g0txd"/>
        <use fill="#63971A" xlink:href="#sien2g0txd"/>
        <path fill="#8EC437" d="M79.632.244c-30.606 0-59.034 7.41-63.87 17.52-4.838 10.11-4.838 57.627-4.838 75.076v54.246h68.708V.244"/>
        <path fill="#63971A" d="M22.776 136.47v-20.636l3.098-8.48-7.667-25.603c.063-15.763 3.629-58.824 4.978-60.606 4.053-5.338 19.567-15.357 56.447-15.357V.244c-30.6 0-59.034 7.409-63.866 17.52-4.842 10.11-4.842 57.627-4.842 75.076v54.246h11.852V136.47"/>
        <use fill="#000" filter="url(#jz1i7djule)" xlink:href="#sqlp5jo8af"/>
        <use fill="#63971A" xlink:href="#sqlp5jo8af"/>
        <use fill="#000" filter="url(#uh6kwjyo4g)" xlink:href="#68q7ja0gnh"/>
        <use fill="#5F9119" xlink:href="#68q7ja0gnh"/>
        <path fill="#63971A" d="M79.636.244v1.948h.005c24.872 0 47.786 4.676 55.02 10.556 7.233 5.884 8.558 19.392 9.289 30.352.58 8.715.706 27.91.736 35.407l3.575-3.98c-.239-21.129-1.164-49.259-4.754-56.762C138.675 7.653 110.237.244 79.64.244h-.005"/>
        <path fill="#5E9018" d="M143.336 93.656s5.816.76 11.038 4.403c5.217 3.642 5.378 8.208 4.457 9.295-.925 1.087-10.984-5.6-11.418-6.197-.433-.598-.599-2.664-1.412-3.153-.814-.49-2.665-1.087-2.665-1.087v-3.261M15.927 93.656s-5.816.76-11.038 4.403C-.328 101.7-.49 106.267.432 107.354c.925 1.087 10.984-5.6 11.418-6.197.433-.598.599-2.664 1.412-3.153.814-.49 2.665-1.087 2.665-1.087v-3.261"/>
        <path fill="#2F405C" d="M143.336 142.339L143.336 93.166 136.487 115.834 136.487 136.469 143.336 142.339M135.752 365.261c1.67-1.359 1.612-14.676-2.324-15.328-3.93-.653-27.263 1.141-53.796 1.141v18.7c30.459 0 54.449-3.153 56.12-4.513"/>
        <path fill="#233044" d="M79.632 60.388c-49.847 0-61.425 21.363-61.425 21.363l7.667 25.603s23.371-10.6 53.758-10.6V60.388"/>
        <path fill="#2F405C" d="M79.632 66.017c-43.51 0-57.305 17.536-57.305 17.536l6.197 19.972s22.222-9.093 51.108-9.093V66.017M79.632 60.388c49.846 0 61.425 21.363 61.425 21.363l-7.663 25.603s-23.376-10.6-53.762-10.6V60.388"/>
        <path fill="#276379" d="M79.632 66.017c43.513 0 57.308 17.536 57.308 17.536l-6.196 19.972s-22.222-9.093-51.112-9.093V66.017"/>
        <path fill="#233044" d="M15.927 142.339L15.927 93.166 22.776 115.834 22.776 136.469 15.927 142.339"/>
        <path fill="#2F405C" d="M113.983 56.152s-13.425-4.648-34.351-4.648c-20.922 0-34.352 4.648-34.352 4.648l.76 3.74s12.719-4.317 33.592-4.318c20.872 0 33.59 4.318 33.59 4.318l.76-3.74"/>
        <path fill="#233044" d="M23.156 365.261c-1.671-1.359-.473-14.676 3.458-15.328 3.936-.653 26.484 1.141 53.018 1.141v18.7c-30.46 0-54.8-3.153-56.476-4.513"/>
        <path fill="#276379" d="M132.99 364.307c1.588-.945 1.534-9.353-2.207-9.806-3.74-.453-25.924.793-51.156.793v12.99c28.963 0 51.775-3.034 53.363-3.977"/>
        <path fill="#2F405C" d="M25.937 364.307c-1.588-.945-.453-9.353 3.288-9.806 3.736-.453 25.179.793 50.407.793v12.99c-28.96 0-52.107-3.034-53.695-3.977"/>
        <path fill="#40413C" d="M36.395 7.428c-2.128.909-12.87 5.482-15.514 9.79-2.65 4.306-3.634 9.923-7.429 9.923 0 0 .892-6.601 2.314-9.376 2.436-5.1 10.868-9.508 22.558-12.626.034.268.2 1.381-1.929 2.29"/>
        <path fill="#233044" d="M30.58 375.59c-12.257-1.403-20.542-3.356-21.61-5.271-.442-.79-.856-2.04-1.251-3.726v-.015c3.088-.22 3.195 1.009 4.934 1.968 1.74.959 4.628 1.934 7.892 2.525 3.263.59 10.034 1.435 10.034 4.519"/>
        <path fill="#2F405C" d="M128.689 375.587c12.255-1.403 20.536-3.356 21.608-5.27.438-.79.857-2.041 1.247-3.727v-.014c-3.088-.219-3.463 1.249-5.202 2.208-1.74.959-5.134 1.854-8.398 2.445-3.259.59-9.255.871-9.255 4.358"/>
        <path fill="#327F93" d="M83.036 68.787c-2.05 1.405-2.128 7.399-.545 10.321 1.583 2.923 4.32 3.958 9.742 1.583 5.417-2.374 9.538-4.022 13.96-2.456 4.424 1.567 4.356 3.229 9.222 5.049 4.866 1.82 10.58-.553 13.59 2.248 3.016 2.8-1.183 11.082.429 11.751 1.612.67 5.797-10.553 4.959-13.141-.838-2.587-8.793-7.777-21.126-11.509-12.334-3.73-28.18-5.25-30.23-3.846"/>
        <path fill="#63971A" d="M22.776 147.086L136.487 147.086 136.487 141.119 22.776 141.119z"/>
        <path fill="#E8E9EA" d="M79.632.244L79.632.244M79.632.244L79.632.244M79.632 147.086L79.632 377.492 79.632 147.086M79.632 147.086L79.632.244 79.632 147.086"/>
        <path fill="#40413C" d="M122.873 7.427c2.128.909 12.674 5.15 15.324 9.457 2.645 4.307 3.78 10.262 7.58 10.262 0 0-.775-6.596-2.275-9.382-2.436-5.1-10.868-9.508-22.558-12.626-.034.268-.2 1.38 1.929 2.289"/>
        <path fill="#63971A" d="M37.233 123.13L22.776 133.544 22.776 147.03 110.32 147.03 124.451 137.228 117.923 127.802 37.233 123.13"/>
        <path fill="#D90042" d="M70.23 138.828H39.264c-2.542 0-4.598-2.06-4.598-4.6v-7.204c0-2.54 2.056-4.6 4.598-4.6H70.23v16.404M121.158 138.828H90.192v-16.404h30.966c2.543 0 4.603 2.06 4.603 4.6v7.204c0 2.54-2.06 4.6-4.603 4.6"/>
        <path fill="#CDCFD1" d="M64.906 138.828L95.516 138.828 95.516 122.424 64.906 122.424z"/>
        <path fill="#FB4B54" d="M64.906 135.361h-18.69c-1.067 0-1.93-.865-1.93-1.932v-5.607c0-1.066.863-1.931 1.93-1.931h18.69v9.47M114.207 135.361h-18.69v-9.47h18.69c1.067 0 1.934.865 1.934 1.931v5.607c0 1.067-.867 1.932-1.934 1.932"/>
        <path fill="#E8E9EA" d="M64.906 135.361L95.516 135.361 95.516 125.891 64.906 125.891z"/>
        <path fill="#FFF" d="M108.241 234.554L89.79 234.554 89.79 216.104 74.692 216.104 74.692 234.554 56.241 234.554 56.241 249.653 74.692 249.653 74.692 268.104 89.79 268.104 89.79 249.653 108.241 249.653 108.241 234.554"/>
    </g>
</svg>
