<svg xmlns="http://www.w3.org/2000/svg" width="30" height="30" viewBox="0 0 30 30">
    <g fill="none" fill-rule="evenodd">
        <g>
            <g>
                <path d="M0 0H30V30H0z" transform="translate(-922 -141) translate(922 141)"/>
                <g fill="#FFA006" fill-rule="nonzero" stroke="#FFF" stroke-width="2">
                    <g>
                        <path d="M.708-1c.473 0 .9.191 1.208.5.31.31.5.737.5 1.208.76.458 1.923.557 3.165-.095 3.8-1.994 7.178-.047 7.32.035.526.306.849.87.849 1.477h0v7.43c-1.23 1.685-1.807 1.644-2.195 1.407l-.09-.06c-.101-.072-.19-.15-.279-.202-.083-.048-1.947-1.054-4.017.035-1.278.67-2.512.893-3.587.893-.415 0-.805-.033-1.165-.087h0v4.75c0 .473-.192.9-.5 1.209-.31.309-.736.5-1.209.5-.472 0-.899-.191-1.208-.5-.309-.31-.5-.736-.5-1.208h0V.708C-1 .237-.809-.19-.5-.5-.19-.809.236-1 .708-1z" transform="translate(-922 -141) translate(922 141) translate(9 7)"/>
                    </g>
                </g>
            </g>
        </g>
    </g>
</svg>
