<svg xmlns="http://www.w3.org/2000/svg" xmlns:xlink="http://www.w3.org/1999/xlink" width="215" height="398" viewBox="0 0 215 398">
    <defs>
        <path id="qh57vmcg6b" d="M196.805 50.755v304.836c0 6.878-3.867 12.86-9.546 15.896-2.52 1.346-5.394 2.104-8.454 2.104H35.837c-3.965 0-7.63-1.281-10.61-3.458-4.477-3.273-7.39-8.569-7.39-14.542V50.755c.831-9.196 3.556-16.753 7.39-22.937 6.587-10.64 16.437-17.268 25.55-21.373C60.515 2.072 71 0 81.528 0h51.597c10.527 0 21.004 2.072 30.747 6.445 8.17 3.673 16.925 9.378 23.388 18.182 4.953 6.733 8.57 15.282 9.546 26.128"/>
        <path id="tpn0dw58dc" d="M140.538 18.712C119.556 1.246 92.655.08 80.251.627c-4.546.201-9.098.201-13.644 0C54.203.08 27.3 1.246 6.319 18.712 1.656 22.594-.28 29.261 1.497 35.367l11.902 40.906s19.01-8.575 54.76-6.635c3.508.19 7.031.19 10.538 0 35.752-1.94 54.762 6.635 54.762 6.635l11.902-40.906c1.776-6.108-.16-12.773-4.823-16.655"/>
        <path id="r1ay8iefjf" d="M62.724 173.895L77.925 173.895 77.925 161.906 62.724 161.906z"/>
        <path id="g5i7q4edyh" d="M136.717 173.895L151.916 173.895 151.916 161.906 136.717 161.906z"/>
        <filter id="8u4wl8z4ya" width="121.8%" height="110.4%" x="-10.9%" y="-4.4%" filterUnits="objectBoundingBox">
            <feOffset dy="3" in="SourceAlpha" result="shadowOffsetOuter1"/>
            <feGaussianBlur in="shadowOffsetOuter1" result="shadowBlurOuter1" stdDeviation="6"/>
            <feColorMatrix in="shadowBlurOuter1" values="0 0 0 0 0 0 0 0 0 0 0 0 0 0 0 0 0 0 0.19 0"/>
        </filter>
        <filter id="ppnj724iue" width="356.6%" height="425.3%" x="-128.3%" y="-137.6%" filterUnits="objectBoundingBox">
            <feOffset dy="3" in="SourceAlpha" result="shadowOffsetOuter1"/>
            <feGaussianBlur in="shadowOffsetOuter1" result="shadowBlurOuter1" stdDeviation="6"/>
            <feColorMatrix in="shadowBlurOuter1" values="0 0 0 0 0 0 0 0 0 0 0 0 0 0 0 0 0 0 0.19 0"/>
        </filter>
        <filter id="5tn241qk0g" width="356.6%" height="425.3%" x="-128.3%" y="-137.6%" filterUnits="objectBoundingBox">
            <feOffset dy="3" in="SourceAlpha" result="shadowOffsetOuter1"/>
            <feGaussianBlur in="shadowOffsetOuter1" result="shadowBlurOuter1" stdDeviation="6"/>
            <feColorMatrix in="shadowBlurOuter1" values="0 0 0 0 0 0 0 0 0 0 0 0 0 0 0 0 0 0 0.19 0"/>
        </filter>
    </defs>
    <g fill="none" fill-rule="evenodd" transform="translate(0 9)">
        <use fill="#000" filter="url(#8u4wl8z4ya)" xlink:href="#qh57vmcg6b"/>
        <use fill="#8EC437" xlink:href="#qh57vmcg6b"/>
        <path fill="#202629" d="M23.372 96.952v64.091l14.876 3.078v-23.948c0-7.464-1.676-14.875-4.964-21.933l-9.912-21.288M191.27 96.952v64.091l-14.877 3.078v-23.948c0-7.464 1.677-14.875 4.964-21.933l9.912-21.288M29.857 33.95c-1.235-1.355-1.135-3.578.014-5.025 2.422-3.045 4.42-6.787 7.286-9.655 3.418-3.424 8.667-7.59 13.841-10.18 2.229-1.112 4.557 1.26 3.747 3.787-.312.972-.57 1.904-.783 2.675-1.144 4.105-2.053 6.929-4.898 10.12-2.68 3.006-15.199 12.68-19.207 8.278M184.785 33.95c1.235-1.355 1.135-3.578-.014-5.025-2.422-3.045-4.42-6.787-7.286-9.655-3.42-3.424-8.668-7.59-13.843-10.18-2.227-1.112-4.555 1.26-3.745 3.787.312.972.568 1.904.783 2.675 1.144 4.105 2.053 6.929 4.898 10.12 2.68 3.006 15.199 12.68 19.207 8.278"/>
        <path fill="#63971A" d="M20.791 118.244c-1.18-2.262-4.234-2.87-7.861-.717-3.62 2.151-7.065 5.661-9.704 10.082-.719 1.207-3.926 6.142-3.087 8.392.717 1.927 5.364-.144 6.2-.39 5.012-1.47 11.014-5.45 13.658-10.445 1.522-2.876 1.631-5.316.794-6.922M193.853 118.244c1.178-2.262 4.232-2.87 7.859-.717 3.62 2.151 7.065 5.661 9.704 10.082.719 1.207 3.926 6.142 3.087 8.392-.717 1.927-5.364-.144-6.201-.39-5.01-1.47-11.013-5.45-13.657-10.445-1.522-2.876-1.631-5.316-.792-6.922"/>
        <path fill="#202629" d="M174.43 70.904c-20.982-17.467-47.883-18.634-60.287-18.085-4.546.2-9.098.2-13.644 0-12.404-.549-39.306.618-60.288 18.085-4.662 3.881-6.599 10.548-4.822 16.654l11.902 40.906s19.01-8.574 54.76-6.635c3.509.19 7.031.19 10.538 0 35.752-1.94 54.762 6.635 54.762 6.635l11.902-40.906c1.776-6.108-.16-12.773-4.823-16.654"/>
        <g transform="translate(33.892 52.191)">
            <mask id="tdp9804aad" fill="#fff">
                <use xlink:href="#tpn0dw58dc"/>
            </mask>
            <path fill="#4D565A" d="M17.11 80.05L8.324 80.05 50.671-3.252 59.457-3.252 17.11 80.05M32.561 80.05L23.775 80.05 66.123-3.252 74.91-3.252 32.561 80.05M80.735 80.05L71.947 80.05 114.296-3.252 123.083-3.252 80.735 80.05M96.186 80.05L87.4 80.05 129.748-3.252 138.534-3.252 96.186 80.05" mask="url(#tdp9804aad)"/>
        </g>
        <path fill="#63971A" d="M25.228 27.818v60.115h-7.391V50.755c.831-9.196 3.556-16.753 7.39-22.937M25.228 177.413v192.72c-4.478-3.273-7.391-8.569-7.391-14.542V177.413h7.39M196.805 50.755v37.178h-9.546V24.627c4.953 6.733 8.57 15.282 9.546 26.128M196.805 177.413V355.59c0 6.878-3.867 12.86-9.546 15.896V177.413h9.546"/>
        <path fill="#E7F4E6" d="M150.196 358.583H64.444c-11.825 0-21.41-9.586-21.41-21.41V154.795c0-11.825 9.585-21.41 21.41-21.41h85.752c11.827 0 21.413 9.585 21.413 21.41v182.376c0 11.825-9.586 21.41-21.413 21.41"/>
        <path fill="#F4581B" fill-rule="nonzero" d="M147.003 251.807L147.003 284.223 122.871 284.223 122.871 308.347 90.455 308.347 90.455 284.223 66.331 284.223 66.331 251.807 90.455 251.807 90.455 227.675 122.871 227.675 122.871 251.807z"/>
        <path fill="#63971A" d="M83.303 178.137H61.787c-2.453 0-4.44-1.988-4.44-4.44v-11.592c0-2.453 1.987-4.44 4.44-4.44h21.516v20.472"/>
        <path fill="#373F43" d="M83.303 178.137L131.339 178.137 131.339 157.664 83.303 157.664z"/>
        <path fill="#202629" d="M83.303 173.895L131.339 173.895 131.339 161.906 83.303 161.906z"/>
        <use fill="#000" filter="url(#ppnj724iue)" xlink:href="#r1ay8iefjf"/>
        <use fill="#8EC437" xlink:href="#r1ay8iefjf"/>
        <path fill="#63971A" d="M152.855 178.137H131.34v-20.473h21.516c2.452 0 4.439 1.988 4.439 4.44v11.592c0 2.453-1.987 4.44-4.439 4.44"/>
        <use fill="#000" filter="url(#5tn241qk0g)" xlink:href="#g5i7q4edyh"/>
        <use fill="#8EC437" xlink:href="#g5i7q4edyh"/>
        <path fill="#63971A" d="M37.603 377.539L55.563 377.539 55.563 373.591 37.603 373.591zM159.081 377.539L177.039 377.539 177.039 373.591 159.081 373.591z"/>
    </g>
</svg>
