<?xml version="1.0" encoding="UTF-8"?>
<svg width="215px" height="378px" viewBox="0 0 215 378" version="1.1" xmlns="http://www.w3.org/2000/svg" xmlns:xlink="http://www.w3.org/1999/xlink">
    <defs>
        <path d="M140.538,18.712 C119.556,1.246 92.655,0.08 80.251,0.627 C75.705,0.828 71.153,0.828 66.607,0.627 C54.203,0.08 27.3,1.246 6.319,18.712 C1.656,22.594 -0.28,29.261 1.497,35.367 L13.399,76.273 C13.399,76.273 32.409,67.698 68.159,69.638 C71.667,69.828 75.19,69.828 78.697,69.638 C114.449,67.698 133.459,76.273 133.459,76.273 L145.361,35.367 C147.137,29.259 145.201,22.594 140.538,18.712" id="path-1"></path>
    </defs>
    <g id="Page-1" stroke="none" stroke-width="1" fill="none" fill-rule="evenodd">
        <g id="gls-device-malfunctioning">
            <g id="gzzhbq8i2b-link" transform="translate(17.000000, 0.000000)" fill="#000000" fill-rule="nonzero">
                <path d="M179.806,50.755 L179.806,355.591 C179.806,362.469 175.938,368.451 170.259,371.487 C167.739,372.833 164.865,373.591 161.805,373.591 L18.837,373.591 C14.872,373.591 11.207,372.31 8.227,370.133 C3.75,366.86 0.837,361.564 0.837,355.591 L0.837,50.755 C1.668,41.559 4.393,34.002 8.227,27.818 C14.814,17.178 24.664,10.55 33.777,6.445 C43.515,2.072 54,0 64.528,0 L116.125,0 C126.652,0 137.129,2.072 146.872,6.445 C155.042,10.118 163.797,15.823 170.26,24.627 C175.213,31.36 178.83,39.909 179.806,50.755" id="gzzhbq8i2b"></path>
            </g>
            <g id="gzzhbq8i2b-link" transform="translate(17.000000, 0.000000)" fill="#801D19" fill-rule="nonzero">
                <path d="M179.806,50.755 L179.806,355.591 C179.806,362.469 175.938,368.451 170.259,371.487 C167.739,372.833 164.865,373.591 161.805,373.591 L18.837,373.591 C14.872,373.591 11.207,372.31 8.227,370.133 C3.75,366.86 0.837,361.564 0.837,355.591 L0.837,50.755 C1.668,41.559 4.393,34.002 8.227,27.818 C14.814,17.178 24.664,10.55 33.777,6.445 C43.515,2.072 54,0 64.528,0 L116.125,0 C126.652,0 137.129,2.072 146.872,6.445 C155.042,10.118 163.797,15.823 170.26,24.627 C175.213,31.36 178.83,39.909 179.806,50.755" id="gzzhbq8i2b"></path>
            </g>
            <path d="M23.372,96.952 L23.372,161.043 L38.248,164.121 L38.248,140.173 C38.248,132.709 36.572,125.298 33.284,118.24 L23.372,96.952 M191.27,96.952 L191.27,161.043 L176.393,164.121 L176.393,140.173 C176.393,132.709 178.07,125.298 181.357,118.24 L191.269,96.952 M29.857,33.95 C28.622,32.595 28.722,30.372 29.871,28.925 C32.293,25.88 34.291,22.138 37.157,19.27 C40.575,15.846 45.824,11.68 50.998,9.09 C53.227,7.978 55.555,10.35 54.745,12.877 C54.433,13.849 54.175,14.781 53.962,15.552 C52.818,19.657 51.909,22.481 49.064,25.672 C46.384,28.678 33.865,38.352 29.857,33.95 M184.785,33.95 C186.02,32.595 185.92,30.372 184.771,28.925 C182.349,25.88 180.351,22.138 177.485,19.27 C174.065,15.846 168.817,11.68 163.642,9.09 C161.415,7.978 159.087,10.35 159.897,12.877 C160.209,13.849 160.465,14.781 160.68,15.552 C161.824,19.657 162.733,22.481 165.578,25.672 C168.258,28.678 180.777,38.352 184.785,33.95" id="Shape" fill="#202629" fill-rule="nonzero"></path>
            <path d="M20.791,118.244 C19.611,115.982 16.557,115.374 12.93,117.527 C9.31,119.678 5.865,123.188 3.226,127.609 C2.507,128.816 -0.7,133.751 0.139,136.001 C0.856,137.928 5.503,135.857 6.339,135.611 C11.351,134.141 17.353,130.161 19.997,125.166 C21.519,122.29 21.628,119.85 20.791,118.244 M193.853,118.244 C195.031,115.982 198.085,115.374 201.712,117.527 C205.332,119.678 208.777,123.188 211.416,127.609 C212.135,128.816 215.342,133.751 214.503,136.001 C213.786,137.928 209.139,135.857 208.302,135.611 C203.292,134.141 197.289,130.161 194.645,125.166 C193.123,122.29 193.014,119.85 193.853,118.244" id="Shape" fill="#801D19" fill-rule="nonzero"></path>
            <path d="M174.43,70.904 C153.448,53.437 126.547,52.27 114.143,52.819 C109.597,53.019 105.045,53.019 100.499,52.819 C88.095,52.27 61.193,53.437 40.211,70.904 C35.549,74.785 33.612,81.452 35.389,87.558 L47.291,128.464 C47.291,128.464 66.301,119.89 102.051,121.829 C105.56,122.019 109.082,122.019 112.589,121.829 C148.341,119.889 167.351,128.464 167.351,128.464 L179.253,87.558 C181.029,81.45 179.093,74.785 174.43,70.904" id="Path" fill="#202629" fill-rule="nonzero"></path>
            <g id="Clipped" transform="translate(33.892000, 52.191000)">
                <mask id="mask-2" fill="white">
                    <use xlink:href="#path-1"></use>
                </mask>
                <g id="4vhcyi92jc"></g>
                <path d="M17.11,80.05 L8.324,80.05 L50.671,-3.252 L59.457,-3.252 L17.11,80.05 M32.561,80.05 L23.775,80.05 L66.123,-3.252 L74.91,-3.252 L32.561,80.05 M80.735,80.05 L71.947,80.05 L114.296,-3.252 L123.083,-3.252 L80.735,80.05 M96.186,80.05 L87.4,80.05 L129.748,-3.252 L138.534,-3.252 L96.186,80.05" id="Shape" fill="#4D565A" fill-rule="nonzero" mask="url(#mask-2)"></path>
            </g>
            <path d="M25.228,27.818 L25.228,87.933 L17.837,87.933 L17.837,50.755 C18.668,41.559 21.393,34.002 25.227,27.818 M25.228,177.413 L25.228,370.133 C20.75,366.86 17.837,361.564 17.837,355.591 L17.837,177.413 L25.227,177.413 M196.805,50.755 L196.805,87.933 L187.259,87.933 L187.259,24.627 C192.212,31.36 195.829,39.909 196.805,50.755 M196.805,177.413 L196.805,355.59 C196.805,362.468 192.938,368.45 187.259,371.486 L187.259,177.413 L196.805,177.413" id="Shape" fill="#5F100D" fill-rule="nonzero"></path>
            <path d="M150.196,358.583 L64.444,358.583 C52.619,358.583 43.034,348.997 43.034,337.173 L43.034,154.795 C43.034,142.97 52.619,133.385 64.444,133.385 L150.196,133.385 C162.023,133.385 171.609,142.97 171.609,154.795 L171.609,337.171 C171.609,348.996 162.023,358.583 150.196,358.583" id="Path" fill="#F4E6E6" fill-rule="nonzero"></path>
            <polygon id="Path" fill="#F4581B" fill-rule="nonzero" points="147.003 251.807 147.003 284.223 122.871 284.223 122.871 308.347 90.455 308.347 90.455 284.223 66.331 284.223 66.331 251.807 90.455 251.807 90.455 227.675 122.871 227.675 122.871 251.807"></polygon>
            <path d="M83.303,178.137 L61.787,178.137 C59.334,178.137 57.347,176.149 57.347,173.697 L57.347,162.105 C57.347,159.652 59.334,157.665 61.787,157.665 L83.303,157.665 L83.303,178.137" id="Path" fill="#801D19" fill-rule="nonzero"></path>
            <polygon id="Path" fill="#373F43" fill-rule="nonzero" points="83.303 178.137 131.339 178.137 131.339 157.664 83.303 157.664"></polygon>
            <polygon id="Path" fill="#202629" fill-rule="nonzero" points="83.303 173.895 131.339 173.895 131.339 161.906 83.303 161.906"></polygon>
            <g id="e3uk0gw3rf-link" transform="translate(62.000000, 161.000000)" fill="#000000" fill-rule="nonzero">
                <polygon id="e3uk0gw3rf" points="0.724 12.895 15.925 12.895 15.925 0.906 0.724 0.906"></polygon>
            </g>
            <g id="e3uk0gw3rf-link" transform="translate(62.000000, 161.000000)" fill="#5F100D" fill-rule="nonzero">
                <polygon id="e3uk0gw3rf" points="0.724 12.895 15.925 12.895 15.925 0.906 0.724 0.906"></polygon>
            </g>
            <path d="M152.855,178.137 L131.34,178.137 L131.34,157.664 L152.856,157.664 C155.308,157.664 157.295,159.652 157.295,162.104 L157.295,173.696 C157.295,176.149 155.308,178.136 152.856,178.136" id="Path" fill="#801D19" fill-rule="nonzero"></path>
            <g id="1qrur29b8h-link" transform="translate(136.000000, 161.000000)" fill="#000000" fill-rule="nonzero">
                <polygon id="1qrur29b8h" points="0.717 12.895 15.916 12.895 15.916 0.906 0.717 0.906"></polygon>
            </g>
            <g id="1qrur29b8h-link" transform="translate(136.000000, 161.000000)" fill="#5F100D" fill-rule="nonzero">
                <polygon id="1qrur29b8h" points="0.717 12.895 15.916 12.895 15.916 0.906 0.717 0.906"></polygon>
            </g>
            <path d="M37.603,377.539 L55.563,377.539 L55.563,373.591 L37.603,373.591 L37.603,377.539 Z M159.081,377.539 L177.039,377.539 L177.039,373.591 L159.081,373.591 L159.081,377.539 Z" id="Shape" fill="#801D19" fill-rule="nonzero"></path>
        </g>
    </g>
</svg>