<svg xmlns="http://www.w3.org/2000/svg" width="29" height="29" viewBox="0 0 29 29">
    <g fill="none" fillRule="evenodd">
        <g>
            <g transform="translate(-313 -335) translate(313 335)">
                <path d="M0 0L29 0 29 29 0 29z"/>
                <circle cx="15" cy="13" r="3" fill="#ED3035"/>
                <path fill="#ED3035" fillRule="nonzero" d="M22.778 20.385L15 28l-7.778-7.615c-4.296-4.206-4.296-11.025 0-15.23 4.296-4.206 11.26-4.206 15.556 0 4.296 4.205 4.296 11.024 0 15.23zM15 15.163c1.35 0 2.444-1.072 2.444-2.394 0-1.321-1.094-2.393-2.444-2.393-1.35 0-2.444 1.072-2.444 2.393 0 1.322 1.094 2.394 2.444 2.394z"/>
                <g>
                    <path d="M0 0L14 0 14 14 0 14z" transform="translate(9 7)"/>
                    <path fill="#FFF" fillRule="nonzero" d="M3.111 1.556H7.3c1.983 0 3.59 1.625 3.59 3.63 0 2.004-1.607 3.629-3.59 3.629H5.504v3.63H3.111V1.554zm2.393 2.42v2.42H7.3c.661 0 1.197-.543 1.197-1.21 0-.669-.536-1.21-1.197-1.21H5.504z" transform="translate(9 7)"/>
                </g>
            </g>
        </g>
    </g>
</svg>
