<svg xmlns="http://www.w3.org/2000/svg" width="30" height="30" viewBox="0 0 30 30">
    <g fill="none" fill-rule="evenodd">
        <g>
            <g>
                <g>
                    <path d="M0 0H30V30H0z" transform="translate(-772 -141) translate(772 141)"/>
                </g>
                <g fill="#4C4C4C" fill-rule="nonzero" stroke="#FFF" stroke-width="2">
                    <path d="M6.702-.998c3.13.056 5.577 1.535 6.96 3.922 1.368 2.359 1.452 5.175.243 7.593l-.14.267-4.963 9.086c-.21.37-.492.645-.82.835-.328.19-.706.295-1.106.295-.4 0-.777-.105-1.106-.295-.276-.16-.517-.38-.706-.653l-.106-.17-4.971-9.098C-1.366 8.31-1.328 5.37.09 2.924 1.482.522 3.954-.942 6.702-.998zm.174 5.436c-.5 0-.952.203-1.28.531-.329.328-.532.781-.532 1.281 0 .5.203.953.532 1.28.328.329.78.533 1.28.533s.953-.204 1.281-.532c.328-.328.532-.781.532-1.281 0-.5-.204-.953-.532-1.28-.328-.329-.781-.532-1.28-.532z" transform="translate(-772 -141) translate(772 141) translate(8 5)"/>
                </g>
            </g>
        </g>
    </g>
</svg>
