<svg xmlns="http://www.w3.org/2000/svg" xmlns:xlink="http://www.w3.org/1999/xlink" width="1280" height="200" viewBox="0 0 1280 200">
    <defs>
        <path id="prefix__a" d="M0 0H1280V200H0z"/>
    </defs>
    <g fill="none" fill-rule="evenodd">
        <mask id="prefix__b" fill="#fff">
            <use xlink:href="#prefix__a"/>
        </mask>
        <use fill="#70D3DD" xlink:href="#prefix__a"/>
        <g mask="url(#prefix__b)">
            <g>
                <path d="M0 0H1365V1205H0z" transform="translate(-43 -283)"/>
                <g fill="#000" fill-rule="nonzero" opacity=".03">
                    <path d="M1082.612 195.166L951.252 326.542 973.948 326.542 1105.308 195.166z" opacity=".2" transform="translate(-43 -283)"/>
                    <path d="M781.621 306.295L673.071 414.845 691.825 414.845 800.375 306.295z" opacity=".3" transform="translate(-43 -283)"/>
                    <path d="M285.108 302.597L218.365 369.339 229.9 369.339 296.643 302.597zM285.108 465.105L218.365 531.848 229.9 531.848 296.643 465.105z" opacity=".1" transform="translate(-43 -283)"/>
                    <path d="M591.29 227.759L483.081 335.968 501.77 335.968 609.979 227.759zM108.209 295.475L0 403.684 18.705 403.684 126.915 295.475z" opacity=".4" transform="translate(-43 -283)"/>
                    <path d="M1159.072 272.438L1050.847 380.647 1069.552 380.647 1177.761 272.438z" opacity=".2" transform="translate(-43 -283)"/>
                    <path d="M1082.498 326.542L1005.973 403.067 1019.195 403.067 1095.72 326.542z" opacity=".4" transform="translate(-43 -283)"/>
                    <g opacity=".8" style="mix-blend-mode:screen">
                        <path d="M740.95 194.128c-6.912-30.516-21.902-55.37-44.566-73.881-27.19-22.21-63.108-29.964-97.826-37.46-14.601-3.163-29.721-6.489-43.608-10.69-25.098-7.74-48.768-19.371-71.675-30.63-30.467-14.974-61.989-30.468-96.69-36.503-8.794-1.525-18.414-3.066-29.202-3.942-47.259-3.829-89.066 31.879-93.154 79.494-2.986 34.913-10.967 85.205-45.685 118.82-8.768 8.106-18.664 14.898-29.38 20.165l-2.223.52c-4.332 1.021-8.712 2.043-13.076 3.244-5.678 1.135-11.438 2.303-17.116 3.86-5.516.958-11.064 2.045-16.515 3.554-5.285.79-10.523 1.873-15.688 3.244-5.156.744-10.265 1.79-15.298 3.132-5.153.71-10.257 1.739-15.283 3.082-5.094.68-10.14 1.688-15.104 3.017-11.745 1.623-23.264 4.527-33.809 10.903-23.556 14.211-37.93 35.285-42.716 62.654-3.861 22.063-1.541 48.297 6.911 77.985 1.85 6.49 3.423 11.697 4.98 16.434 4.868 14.699 9.865 25.958 15.851 35.448 6.822 11.216 16.193 20.665 27.352 27.58 20.523 12.037 52.207 20.798 81.896 20.798 12.162.18 24.276-1.578 35.885-5.208 43.803-14.6 74.952-46.739 105.143-77.871 23.394-24.14 47.6-49.092 77.532-65.818 29.931-16.726 64.26-24.449 102.206-22.956 30.175 1.168 61.924 8.111 94.339 20.668 5.856 2.272 11.356 4.283 16.758 6.181 45.717 15.98 83.647 20.96 112.752 14.796 17.083-3.618 30.986-15.185 41.337-34.377 8.55-15.834 12.735-34.329 15.428-48.67 6.084-32.025 6.149-61.486.244-87.573zM272.097 83.518c2.341-21.32 12.798-40.92 29.202-54.738 16.545-14.01 37.984-20.863 59.588-19.046 10.285.827 19.468 2.287 27.855 3.731 33.112 5.743 63.271 20.425 92.473 34.62 21.836 10.627 44.42 21.626 68.332 28.992 13.271 4.072 27.58 7.22 41.532 10.237 33.095 7.235 67.31 14.698 93.251 35.69 21.447 17.327 35.692 40.738 42.586 69.55 5.695 24.092 6.181 51.996 1.444 82.95-2.385 15.558-5.937 33.485-14.26 48.475-9.994 18.024-24.335 29.283-41.548 32.56-28.634 5.435-64.293.503-109.053-15.088-5.24-1.833-10.561-3.78-16.223-5.954-31.781-12.15-62.735-18.721-91.986-19.468-36.583-1.022-70.036 6.88-99.416 23.508-28.602 16.061-51.915 39.73-74.335 62.606-29.202 29.688-59.377 60.399-101.298 74.27-34.637 11.453-84.361 1.736-112.347-14.26-10.529-6.641-19.278-15.752-25.486-26.542-5.403-9.036-9.897-19.792-14.147-33.874-1.379-4.559-2.758-9.555-4.332-15.704-16.661-64.098-4.461-109.15 36.097-133.972 5.92-3.585 12.315-6.316 18.998-8.112 1.865-.243 3.715-.47 5.58-.649-3.628 1.46-7.124 3.229-10.447 5.29-38.936 24.123-51.444 67.52-37.233 128.974 1.347 5.89 2.515 10.659 3.7 15.04 3.747 13.757 7.624 23.831 12.605 32.657 5.722 10.609 14.045 19.59 24.188 26.103 18.77 10.4 47.535 17.846 74.498 17.846 11.438.147 22.83-1.495 33.76-4.867 40.559-13.352 69.907-42.765 98.297-71.188 21.447-21.48 43.608-43.69 70.555-59.004 28.813-16.386 61.032-24.335 95.718-23.848 28.163.454 58.144 6.603 89.13 18.283 5.63 2.126 10.821 4.007 15.834 5.76 43.462 15.087 78.196 20.133 106.182 15.428 18.024-3.034 32.852-13.936 42.861-31.538 8.34-14.601 11.357-32.122 13.271-48.816 3.57-30.484 2.58-56.295-3.034-78.942-6.813-27.467-20.668-49.725-41.207-66.143-24.984-19.857-57.69-26.995-89.244-34.069-13.157-2.904-26.768-5.905-39.325-9.734-22.615-6.96-44.046-17.277-64.764-27.239-27.985-13.465-56.943-27.4-88.708-32.868-8.015-1.379-16.775-2.774-26.607-3.569C322.34 13.4 284.46 43.9 278.375 86.292c-4.477 31.18-14.098 76.249-45.717 107.317-8.225 8.111-19.76 15.834-33.177 22.404 9.72-5.062 18.704-11.426 26.704-18.916 14.244-13.904 24.968-31.133 32.771-52.661 6.084-17.067 10.35-36.99 13.092-60.919h.049zM156.912 227.904l5.5-.941-1.737.697-6.132.909 2.369-.665zM286.146 89.228c3.348-18.673 13.362-35.495 28.18-47.34 15.167-12.146 34.417-18.011 53.78-16.385 9.28.762 17.602 2.077 25.211 3.374 30.192 5.192 57.804 18.3 84.523 31.003 19.647 9.329 39.975 18.981 61.406 25.584 11.907 3.667 24.772 6.49 37.216 9.329 29.997 6.7 61.032 13.643 84.799 32.446 35.156 27.774 49.091 71.042 43.803 136.178-.925 11.357-2.612 32.447-12.07 48.557-9.734 16.531-24.968 27.093-43.057 29.737-27.028 3.926-60.562-1.217-102.515-15.737-4.867-1.622-9.815-3.455-15.363-5.516-30.322-11.356-59.524-17.05-86.795-17.148h-.633c-32.348-.18-64.166 8.216-92.213 24.335-25.535 14.601-46.723 35.53-67.229 55.711-27.417 27.028-55.776 54.965-94.55 67.651-31.472 10.27-77.011 2.077-102.839-11.746-9.517-6.24-17.214-14.887-22.307-25.064-4.396-8.355-7.77-17.943-10.902-31.068-.99-4.137-1.963-8.68-3.066-14.309-11.648-58.112.99-99.27 37.59-122.291 2.482-1.568 5.067-2.966 7.738-4.186l5.954-.324 2.433-.146c-.665.405-1.346.795-2.011 1.233-19.095 11.979-32.721 30.977-37.947 52.904-4.59 18.024-4.867 39.698-.713 64.406.876 5.354 1.622 9.734 2.433 13.628 1.883 10.324 5.044 20.373 9.41 29.916 4.643 9.993 11.937 18.522 21.09 24.659 16.807 8.663 42.18 15.153 66.515 15.153 10.896.148 21.749-1.395 32.171-4.575 37.314-12.152 64.893-38.774 91.5-64.52 19.467-18.836 39.568-38.304 63.514-52.158 27.07-15.902 57.834-24.432 89.228-24.74 26.135-.244 54.396 5.077 83.906 15.898 5.63 2.06 10.367 3.748 14.926 5.321 40.736 14.033 73.313 19.29 99.61 16.078 18.488-2.049 34.932-12.681 44.388-28.7 8.939-14.892 10.415-33.079 11.096-48.977 1.817-42.505-1.622-95.556-44.078-128.7-22.827-17.845-52.337-24.497-80.89-30.97-11.697-2.644-23.8-5.386-34.993-8.842-20.133-6.197-39.293-15.168-57.804-23.848-25.535-11.956-51.914-24.335-80.775-29.202-7.236-1.233-15.153-2.466-23.962-3.244-18.455-1.565-36.824 3.867-51.46 15.217-14.168 11.003-24.045 26.612-27.92 44.127-6.587 29.851-17.733 67.733-45.734 95.799-8.712 8.744-21.204 17.132-35.594 24.075 10.646-5.427 20.454-12.36 29.12-20.587 29.754-29.591 40.153-70.052 45.88-101.996zm-158.21 146.658c2.953-.27 5.922-.567 8.907-.892-.827.454-1.622.941-2.466 1.444-3.244.406-6.489.73-9.734 1.006 1.104-.584 2.19-1.07 3.294-1.558zm38.937-9.734c2.758-.47 5.532-.973 8.29-1.508l-.39.178-1.297.325c-2.888.697-5.84 1.249-8.794 1.784.758-.227 1.498-.465 2.223-.714l-.032-.065zm-48.443 14.893c3.715-.324 7.414-.73 11.048-1.281-29.04 21.009-41.19 54.932-37.135 103.57.373 4.363.714 8.306 1.168 12.232.851 9.258 2.907 18.366 6.116 27.092 3.474 9.36 9.694 17.452 17.846 23.216 15.282 7.203 37.313 12.378 58.566 12.378 10.38.133 20.719-1.317 30.662-4.299 34.312-11 60.026-34.88 84.912-57.982 17.408-16.223 35.383-32.852 56.279-45.214 26.817-15.85 54.608-24.481 82.609-25.6 24.221-.99 50.681 3.569 78.699 13.497 4.153 1.477 9.004 3.245 14 4.867 24.336 8.323 60.578 19.128 93.025 16.71 20.02-1.492 36.324-10.675 45.928-25.957 8.907-14.066 9.556-31.911 8.923-49.108-1.622-42.294-7.917-85.188-43.917-112.346-20.652-15.59-47.047-21.755-72.485-27.726-10.22-2.384-20.798-4.867-30.63-7.884-17.602-5.435-34.458-13.06-50.746-20.441-23.102-10.464-47.048-21.27-73.005-25.65-6.49-1.086-13.53-2.173-21.333-2.839-32.317-2.741-62.136 17.505-72.486 49.222-9.053 27.774-21.577 59.507-45.766 84.36-9.734 9.978-23.556 19.323-39.617 26.753 12.209-5.953 23.396-13.805 33.144-23.264 26.379-26.736 38.417-62.362 45.96-90.429 8.615-32.024 37.168-53.926 69.193-53.926 1.947 0 3.91.081 5.889.244 8.29.697 15.753 1.865 22.583 3.017 27.271 4.624 52.368 16.223 76.622 27.385 17.44 8.112 35.48 16.353 54.397 22.177 10.561 3.245 21.901 5.873 32.884 8.388 26.931 6.197 54.77 12.605 76.363 29.202 21.594 16.596 43.982 44.013 43.693 119.873 0 15.867-.896 34.07-9.9 48.67-9.523 15.445-25.34 25-44.549 26.898-25.486 2.483-56.035-2.644-95.928-16.336-4.299-1.477-8.89-3.1-14.455-5.11-28.861-10.4-56.31-15.364-81.587-14.732-29.834.73-58.874 9.248-86.275 25.276-22.502 13.157-41.613 31.279-60.026 48.816-25.665 24.335-52.207 49.53-87.865 61.048-29.397 9.442-70.053 2.255-93.333-9.263-8.497-5.857-15.131-14.034-19.111-23.556-3.746-9.068-6.324-18.576-7.674-28.294-.697-4.412-1.265-8.809-1.784-12.897-6.684-53.002 6.067-89.228 39.017-110.692l.08-.065zm33.517-8.209c2.336-.454 4.689-.99 7.041-1.54-2.65.735-5.267 1.405-7.852 2.011l.795-.47h.016zm3.099 1.104c2.542-.757 5.062-1.563 7.56-2.418l-1.055.714c-36.096 25.276-40.98 65.72-41.515 93.95v.616c0 3.358-.13 6.83-.097 10.204-.168 8.206.804 16.396 2.887 24.335 2.269 8.72 7.449 16.401 14.683 21.772 15.934 6.385 32.947 9.645 50.113 9.604 10.014.134 19.993-1.222 29.608-4.023 31.343-9.848 55.402-31.084 78.683-51.623 15.217-13.433 30.937-27.304 48.67-38.06 26.33-15.963 51.2-24.627 76.087-26.492 22.258-1.623 46.966 2.06 73.459 11.113l4.558 1.622 8.534 2.904c21.269 7.187 53.537 16.045 86.421 17.359 19.598.778 37.314-7.836 47.486-23.037 9.507-14.277 8.744-32.917 6.749-49.27-4.364-35.692-11.357-72.518-43.803-95.961-18.527-13.417-41.727-19.062-64.18-24.53-8.711-2.125-17.715-4.315-26.168-6.91-15.022-4.624-29.51-10.903-43.527-16.987-20.717-8.971-42.18-18.25-65.25-22.08-5.678-.94-11.859-1.881-18.689-2.465-33.177-2.872-56.068 19.257-65.574 39.082-10.627 22.128-23.849 49.675-45.815 72.842-10.204 10.805-24.984 21.09-41.596 28.764-1.623.73-3.148 1.428-4.754 2.125 16.061-7.576 30.094-17.197 39.893-27.417 23.167-24.076 35.87-53.326 45.96-78.845 8.859-22.437 31.312-43.9 62.347-43.9 1.914 0 3.877.08 5.856.26 7.285.616 13.887 1.621 19.955 2.643 24.335 4.089 47.047 14.115 68.852 23.8 15.2 6.733 30.824 13.709 47.274 18.738 9.166 2.839 18.965 5.175 28.456 7.43 23.88 5.695 48.572 11.584 68.024 25.957 34.685 25.65 40.558 65.218 43.51 103.554 1.331 17.066 1.315 34.782-7.705 48.67-9.426 14.52-25.779 23.069-46.058 24.075-30.5 1.509-63.822-8.29-89.439-16.986-4.38-1.493-8.68-2.985-12.865-4.445l-.681-.244c-27.353-9.523-53.05-13.676-76.38-12.345-26.411 1.508-53.244 10.318-79.72 26.168-19.388 11.6-36.309 26.93-52.645 41.758-24.01 21.74-48.816 44.241-81.457 54.592-26.428 8.322-62.217 2.887-83.826-6.765-7.522-5.459-13.095-13.187-15.899-22.048-2.612-8.26-4.112-16.83-4.461-25.487-.26-3.86-.39-7.754-.52-11.502-1.622-47.129 10.919-78.456 39.585-98.491 2.758-.73 5.581-1.477 8.42-2.32h.049zm166.337-130.306c9.41-19.597 32.009-41.466 64.78-38.644 6.797.584 12.978 1.542 18.624 2.466 23.005 3.813 44.387 13.076 65.055 22.032 14.033 6.083 28.553 12.378 43.625 17.018 8.452 2.596 17.472 4.867 26.2 6.927 22.372 5.451 45.507 11.08 63.888 24.335 32.17 23.248 39.098 59.88 43.43 95.393 1.979 16.223 2.741 34.653-6.62 48.67-9.945 14.974-27.417 23.475-46.771 22.712-32.788-1.314-64.975-10.14-86.195-17.31l-8.533-2.92-4.559-1.541c-26.606-9.085-51.428-12.833-73.783-11.162-25 1.882-50.017 10.578-76.444 26.606-17.846 10.789-33.534 24.692-48.768 38.141-23.215 20.49-47.21 41.678-78.39 51.46-22.243 7.025-54.803 4.786-79.024-5.418-7.047-5.272-12.093-12.784-14.31-21.301-2.057-7.866-3.018-15.979-2.854-24.108 0-3.358 0-6.814.097-10.172v-.617c.535-28.05 5.386-68.235 41.175-93.3 1.265-.892 2.547-1.72 3.845-2.498 2.904-1.038 5.775-2.109 8.565-3.245 1.704-.632 3.391-1.265 5.046-1.93 2.028-.73 4.023-1.477 6.003-2.255 1.979-.779 3.698-1.33 5.515-2.028l2.84-.99c-6.272 2.458-12.226 5.66-17.733 9.54-14.312 10.256-25.386 24.398-31.91 40.752-5.5 13.287-8.778 28.342-10.303 47.356l-.113 1.217c-.227 2.936-.47 5.954-.649 8.906-.47 8.485-.438 15.623 1.265 22.924 1.706 8.317 6.305 15.761 12.979 21.01h.097c14.727 5.468 30.317 8.244 46.026 8.192 9.779.132 19.524-1.17 28.926-3.861 29.948-9.28 53.26-29.202 75.795-48.573 14.033-12.021 28.553-24.448 44.63-34.344 26.282-16.224 49.416-24.741 72.81-26.947 21.285-2.012 45.117 1.33 70.847 9.928 2.92.957 5.873 1.963 8.858 2.97l3.78 1.28c20.523 6.88 51.59 15.543 83.145 17.668 20.035 1.363 38.092-6.733 48.231-21.626 9.945-14.6 8.258-34.069 5.662-49.335-5.759-34.069-13.432-66.515-43.673-87.784-17.472-12.313-39.13-17.716-60.026-22.94-7.933-1.979-16.223-4.023-23.864-6.408-13.709-4.218-26.996-9.734-39.828-15.217-19.614-8.193-39.829-16.791-61.568-20.295-5.272-.86-11.032-1.736-17.359-2.288-29.575-2.596-51.492 15.883-62.135 34.069l-3.893 6.7c-11.194 19.257-23.897 41.077-41.938 60.4-9.734 10.512-23.54 20.506-38.838 28.147-4.737 2.368-9.831 4.656-15.136 6.797h-.163c1.98-.822 3.926-1.681 5.84-2.58 16.71-7.77 31.571-18.056 41.857-28.942 22.047-23.247 35.302-50.86 45.944-73.037zm7.041 2.888c10.513-17.943 32.138-36.194 61.356-33.63 6.295.55 12.038 1.41 17.294 2.27 21.642 3.57 41.824 12.07 61.34 20.296 13.036 5.745 26.35 10.835 39.894 15.25 7.738 2.384 15.963 4.429 23.913 6.408 20.88 5.208 42.456 10.594 59.799 22.826 29.997 21.09 37.622 53.326 43.348 87.249 2.564 15.169 4.251 34.426-5.532 48.67-9.977 14.6-27.741 22.582-47.518 21.268-31.473-2.109-62.46-10.756-82.933-17.634l-3.78-1.266-8.907-2.904c-25.843-8.63-49.789-11.973-71.187-9.96-23.524 2.222-46.772 10.82-73.151 27.06-16.142 9.928-30.678 22.388-44.728 34.425-22.485 19.257-45.733 39.18-75.52 48.41-20.814 6.409-51.378 4.64-74.367-4.282-6.495-5.153-10.965-12.432-12.621-20.555-1.623-7.203-1.623-14.293-1.233-22.713.162-2.936.422-5.954.649-8.874l.097-1.217c4.429-54.591 26.038-76.087 41.905-87.508 10.87-7.836 22.988-11.68 34.701-15.412 5.597-1.768 11.357-3.602 16.97-5.857 5.321-2.141 10.431-4.429 15.201-6.814 15.364-7.69 29.202-17.748 39.066-28.325 18.105-19.468 30.824-41.24 42.034-60.546l3.91-6.635zM152.109 233.907c-1.2.34-2.417.698-3.601 1.006l.422-.276c1.07-.243 2.125-.47 3.18-.73zm-5.905 1.623c-4.542 1.135-8.988 2.092-13.335 2.871.6-.406 1.2-.779 1.8-1.152 2.126-.276 4.235-.6 6.328-.957 2.092-.357 3.78-.714 5.694-1.12l-.487.358zm-1.817 1.33c-27.725 20.247-39.893 51.476-38.238 97.972.13 3.78.26 7.658.52 11.535.352 8.727 1.864 17.369 4.493 25.698 2.869 9.039 8.554 16.923 16.223 22.501 14.325 6.392 34.767 10.951 54.673 10.951 10.079.13 20.12-1.26 29.786-4.12 32.803-10.416 57.69-32.966 81.749-54.77 16.32-14.796 33.209-30.095 52.53-41.662 26.363-15.785 53.067-24.562 79.349-26.054 23.215-1.33 48.816 2.806 76.07 12.313l.666.227c4.202 1.46 8.5 2.953 12.881 4.445 25.682 8.728 59.069 18.544 89.747 17.035 20.539-1.022 37.12-9.734 46.69-24.449 9.15-14.13 9.167-31.992 7.837-49.205-3.018-38.514-8.89-78.293-43.803-104.137-19.582-14.504-44.355-20.409-68.3-26.12-9.475-2.27-19.273-4.607-28.423-7.414-16.321-5.029-32.009-11.989-47.161-18.721-21.902-9.734-44.55-19.76-69.063-23.865-6.084-1.006-12.703-2.028-20.003-2.644-34.49-2.969-59.523 20.052-69.046 44.16-10.059 25.454-22.713 54.607-45.783 78.569-10.301 10.756-25.324 20.83-42.472 28.553 14.503-7.155 27.044-15.85 36.016-25.081 24.334-24.92 36.859-56.782 45.96-84.62 9.604-29.462 36.194-48.914 65.883-48.914 1.898 0 3.829 0 5.76.243 7.77.665 14.811 1.752 21.252 2.823 25.843 4.364 49.675 15.153 72.729 25.6 16.32 7.382 33.192 15.023 50.843 20.458 9.864 3.05 20.458 5.516 30.695 7.917 25.39 5.938 51.655 12.086 72.177 27.58 16.564 12.492 27.953 29.023 34.831 50.519 6.49 20.328 8.112 42.343 8.761 61.21.617 17.067 0 34.767-8.793 48.67-9.458 14.958-25.552 24.027-45.295 25.487-32.3 2.4-68.381-8.355-92.716-16.678-4.997-1.703-9.848-3.407-14.001-4.867-28.099-9.977-54.673-14.6-78.975-13.546-28.147 1.136-56.068 9.734-83.015 25.714-20.96 12.394-38.935 29.202-56.408 45.311-24.805 23.054-50.47 46.87-84.604 57.804-28.067 8.939-65.834 2.71-88.58-8.014-8.006-5.66-14.11-13.612-17.504-22.81-3.198-8.655-5.238-17.693-6.068-26.882-.454-3.91-.795-7.836-1.168-12.2-4.088-49.076 8.404-83.047 38.157-103.83 4.3-.794 8.68-1.703 13.141-2.692zm26.541-10.188c-2.79.746-5.564 1.444-8.306 2.044-1.265.26-2.563.503-3.845.73l2.142-.909c3.353-.584 6.69-1.233 10.01-1.946v.08zm-8.111 2.822c.649-.13 1.298-.308 1.947-.454-3.472.957-6.944 1.785-10.383 2.531.503-.276 1.022-.535 1.622-.779 2.223-.421 4.607-.876 6.798-1.379l.016.081zm-11.21 2.661c-3.44.649-6.944 1.152-10.448 1.622.94-.47 1.914-.908 2.871-1.314 3.115-.378 6.23-.8 9.345-1.265-.6.21-1.2.535-1.785.876l.017.081zm-1.931 1.152l-1.038.649c-2.628.584-5.224 1.136-7.755 1.622-1.444.244-2.904.438-4.348.65.811-.471 1.622-.926 2.45-1.347 3.569-.536 7.138-1.039 10.675-1.655l.016.081zm-16.84 4.202l-.422.276-1.443 1.005-.974.163c-3.245.519-6.684.892-10.058 1.216.957-.584 1.914-1.135 2.871-1.622 3.326-.406 6.684-.73 10.01-1.12l.016.082zm-14.698 2.823c-3.137.28-6.262.508-9.377.681 1.152-.6 2.32-1.184 3.488-1.72l2.71-.194 5.904-.438c-.94.454-1.849 1.005-2.741 1.59l.016.08zm-1.428.957c-32.446 21.755-44.89 57.966-38.238 110.691.503 3.91 1.087 8.485 1.8 12.979 1.356 9.787 3.957 19.36 7.74 28.488 4.053 9.682 10.812 17.99 19.467 23.93 15.899 7.868 39.812 13.724 62.784 13.724 10.563.144 21.086-1.34 31.198-4.396 35.837-11.568 62.443-36.811 88.173-61.227 18.43-17.489 37.508-35.594 59.929-48.67 27.288-15.964 56.181-24.432 85.886-25.162 25.195-.633 52.531 4.315 81.295 14.682 5.564 2.012 10.172 3.634 14.471 5.11 40.007 13.725 70.604 18.933 96.318 16.402 19.468-1.914 35.496-11.616 45.165-27.288 9.101-14.779 9.945-33.063 10.01-49.043.162-42.764-4.867-90.542-43.998-120.522-21.739-16.694-49.675-23.118-76.687-29.348-10.967-2.515-22.29-5.127-32.82-8.371-18.867-5.808-36.875-14.115-54.299-22.129-24.335-11.21-49.449-22.81-76.833-27.45-6.847-1.168-14.326-2.336-22.713-3.017-34.734-2.937-66.694 19.906-75.925 54.283-7.511 27.953-19.468 63.465-45.75 90.055-9.36 9.507-22.615 18.381-38.076 25.6 11.599-5.725 22.256-13.187 31.603-22.128 28.148-28.212 39.342-66.24 45.96-96.204 3.82-17.32 13.577-32.757 27.58-43.64 12.811-9.936 28.565-15.324 44.777-15.315 2.028 0 4.072.08 6.116.26 8.793.73 16.694 1.962 23.913 3.244 28.715 4.867 55.078 17.245 80.549 29.202 18.559 8.68 37.735 17.667 57.917 23.88 11.226 3.456 23.345 6.214 35.058 8.858 28.456 6.49 57.885 13.125 80.565 30.825 42.18 32.917 45.587 85.723 43.803 128.034-.682 15.785-2.142 33.874-10.983 48.67-9.324 15.812-25.557 26.303-43.803 28.31-26.168 3.244-58.631-2.029-99.254-16.03-4.543-1.622-9.28-3.244-14.91-5.32-29.59-10.854-57.933-16.224-84.182-15.948-31.513.317-62.393 8.88-89.569 24.838-23.978 13.676-44.127 33.144-63.595 51.963-26.541 25.681-53.975 52.239-91.191 64.341-31.019 10.043-73.702 2.06-98.086-10.512-8.988-6.075-16.146-14.49-20.7-24.335-4.322-9.471-7.445-19.445-9.297-29.689-.779-3.926-1.622-8.241-2.433-13.611-4.089-24.578-3.861-46.14.697-64.066 5.18-21.727 18.684-40.55 37.606-52.417 1.12-.714 2.239-1.38 3.374-2.012 3.196-.081 6.44-.34 9.572-.6l.016.08zm58.404-17.36l4.51-.908c-2.022.455-4.067.876-6.132 1.266l.665-.195.957-.162zm-24.124 6.068l6.781-.973-2.076.99c-2.904.47-5.824.876-8.745 1.249 1.006-.39 2.028-.763 3.05-1.12l.99-.146zm-7.154 1.623l-4.965.584-1.265.146c.94-.292 1.882-.568 2.839-.828 1.914-.308 3.829-.6 5.76-.876-.828.26-1.623.584-2.402.925l.033.049zm-4.867 1.379l2.433-.276c-.876.422-1.752.844-2.628 1.298-2.774.324-5.548.6-8.306.86 1.103-.455 2.206-.876 3.342-1.266l5.159-.616zm-11.194 2.141h-.78l-5.272.503c1.006-.308 2.028-.616 3.034-.892l5.613-.779c-.908.357-1.784.73-2.644 1.12l.049.048zm-2.223 1.022c-.99.47-1.98.99-2.953 1.509l-7.673.584h-.373c1.2-.508 2.417-.979 3.65-1.411 2.4-.276 4.85-.503 7.3-.73l.049.048zm-13.465 2.304l-5.97.47c1.119-.356 2.238-.68 3.358-.99 1.833-.259 3.666-.502 5.5-.713-1.023.34-1.98.762-2.937 1.25l.049-.017zm-2.028.973c-1.055.52-2.11 1.071-3.148 1.623l-4.055.227-3.797.194c1.25-.519 2.515-1.005 3.78-1.476 2.369-.243 4.77-.438 7.171-.616l.049.048zm-13.32 2.223c-2.011.114-4.007.243-6.018.39 1.146-.358 2.298-.698 3.455-1.023 1.85-.243 3.715-.47 5.58-.665-1.07.357-2.076.795-3.065 1.25l.048.048zm-1.995.925c-2.012 1.006-4.007 2.125-5.97 3.358-36.908 23.232-49.676 64.666-37.946 123.15 1.103 5.63 2.076 10.189 3.066 14.326 3.163 13.206 6.489 22.842 10.983 31.278 5.168 10.305 12.97 19.059 22.615 25.374 17.846 9.571 45.15 16.466 70.75 16.466 11.093.165 22.144-1.4 32.755-4.64 38.936-12.751 67.375-40.769 94.857-67.845 20.474-20.15 41.63-40.997 67.067-55.598 27.915-16.081 59.592-24.478 91.808-24.334h.632c27.174.08 56.279 5.84 86.52 17.099 5.548 2.06 10.577 3.861 15.379 5.532 42.083 14.601 75.73 19.711 102.888 15.753 18.348-2.677 33.842-13.368 43.64-30.127 9.556-16.32 11.26-37.508 12.168-48.897 3.245-41.158 2.352-100.146-44.144-136.892-23.961-18.9-55.061-25.843-85.172-32.495-12.427-2.774-25.276-5.646-37.167-9.312-21.366-6.587-41.662-16.223-61.292-25.552-26.752-12.703-54.429-25.86-84.718-31.051-7.625-1.314-15.98-2.612-25.292-3.39-19.567-1.651-39.02 4.272-54.348 16.547-14.975 11.976-25.093 28.983-28.472 47.859-5.71 31.797-16.06 72.096-45.733 101.541-8.388 8.355-20.263 16.337-34.07 23.053 10.064-5.199 19.348-11.785 27.58-19.565 15.234-14.974 36.568-42.44 45.945-107.771 6.035-41.97 43.56-72.161 85.4-68.738 9.733.795 18.542 2.174 26.54 3.553 31.652 5.45 60.546 19.354 88.498 32.803 20.734 9.978 42.18 20.296 64.894 27.288 12.573 3.877 26.2 6.878 39.373 9.734 31.538 6.96 64.163 14.163 89.018 34.069 20.392 16.304 34.068 38.416 40.915 65.704 5.597 22.55 6.586 48.28 3.017 78.65-1.947 16.613-4.867 33.988-13.157 48.508-9.896 17.391-24.53 28.147-42.294 31.149-27.855 4.672-62.46-.357-105.792-15.413-5.013-1.735-10.172-3.617-15.818-5.743-31.051-11.713-61.129-17.845-89.39-18.332-34.848-.568-67.197 7.495-96.14 23.946-27.027 15.38-49.237 37.621-70.733 59.15-28.31 28.358-57.592 57.69-97.956 70.977-33.063 10.853-80.678 1.914-107.592-12.979-10.03-6.427-18.254-15.305-23.897-25.795-4.867-8.76-8.81-18.77-12.541-32.447-1.168-4.347-2.352-9.117-3.699-14.99-14.114-61.08-1.72-104.186 36.876-128.164 4.098-2.525 8.448-4.618 12.978-6.246 2.369-.276 4.754-.438 7.122-.6l.049.049zm39.341-9.929l-.438.162-.94.114 1.378-.276zm-15.282 3.164l-.746.26-1.266.129 2.012-.39zm-15.104 3.066l-.99.357-1.622.162 2.612-.52zm-15.071 3.034l-1.136.405-1.817.162 2.953-.567zm651.445 39.682c-2.676 14.276-6.846 32.69-15.33 48.426-10.237 18.981-23.962 30.403-40.802 33.972-28.959 6.132-66.743 1.168-112.33-14.763-5.419-1.899-10.886-3.91-16.726-6.182-32.447-12.556-64.326-19.467-94.598-20.717-38.157-1.508-72.713 6.262-102.694 23.07-29.98 16.807-54.283 41.775-77.725 65.947-30.127 31.068-61.276 63.271-104.819 77.677-16.223 5.37-37.46 6.49-60.026 3.245-21.204-3.066-42.018-9.912-57.106-18.77-11.058-6.865-20.34-16.242-27.093-27.369-5.937-9.426-10.95-20.636-15.753-35.27-1.622-4.72-3.147-9.944-4.98-16.401-8.42-29.559-10.74-55.678-6.895-77.628 4.753-27.11 18.997-48.005 42.343-62.087 8.681-5.057 18.234-8.441 28.163-9.977-4.892 1.652-9.592 3.828-14.017 6.49-40.947 25.032-53.228 70.376-36.534 134.815 1.622 6.148 2.968 11.145 4.347 15.736 4.267 14.13 8.793 24.952 14.228 34.069 6.272 10.912 15.123 20.12 25.78 26.817 19.645 11.227 49.87 19.354 78.195 19.354 11.798.175 23.55-1.522 34.815-5.029 42.1-13.936 72.356-44.711 101.607-74.465 22.453-22.842 45.668-46.463 74.156-62.46 29.202-16.563 62.574-24.431 98.962-23.41 29.202.812 60.027 7.366 91.727 19.469 5.727 2.19 11.048 4.136 16.223 5.97 44.89 15.655 80.695 20.603 109.475 15.12 17.424-3.245 31.992-14.715 42.18-32.95 8.372-15.12 11.957-33.128 14.342-48.75 4.753-31.068 4.266-59.07-1.46-83.275-6.847-28.99-21.27-52.53-42.846-69.987-26.103-21.09-60.416-28.602-93.592-35.837-13.887-3.034-28.245-6.165-41.467-10.237-23.848-7.35-46.415-18.316-68.219-28.942-29.202-14.212-59.474-28.926-92.7-34.686-8.403-1.444-17.602-2.904-27.92-3.747-21.808-1.828-43.45 5.087-60.156 19.224-16.586 13.945-27.17 33.736-29.559 55.273-3.715 33.03-12.508 80.678-45.7 113.06-9.36 8.675-19.983 15.88-31.506 21.366 9.077-4.84 17.486-10.838 25.016-17.846 14.893-14.406 25.957-32.446 33.599-54.964 6.148-17.96 10.172-38.936 12.345-64.374 4.04-47.242 45.426-82.576 92.278-78.813 10.805.876 20.41 2.401 29.202 3.926 34.588 6.02 66.062 21.48 96.48 36.438 22.94 11.356 46.642 22.923 71.788 30.662 13.936 4.299 29.056 7.56 43.673 10.723 34.637 7.48 70.442 15.202 97.502 37.314 22.502 18.397 37.411 43.089 44.274 73.427 5.824 26.022 5.759 55.37-.244 87.297l.097.049z" transform="translate(-43 -283) translate(300.13 306.62)"/>
                        <path d="M288.937 170.344c-10.435 11.108-22.625 20.425-36.081 27.58-4.396 2.369-8.988 4.624-14.082 6.911-5.094 2.288-10.545 4.332-15.736 6.246-10.902 4.023-22.178 8.112-32.447 15.802-30.37 22.55-38.936 55.808-42.927 82.252l-.243 1.622c-.39 2.563-.795 5.224-1.136 7.82-1.19 7.123-1.315 14.384-.373 21.544 1.08 7.958 5.14 15.211 11.356 20.295h.114c13.39 4.6 27.455 6.924 41.613 6.879 9.687.087 19.337-1.225 28.65-3.894 28.634-8.776 51.266-27.58 73.15-45.668 12.785-10.578 25.958-21.528 40.364-30.516 26.25-16.418 47.697-24.854 69.533-27.385 20.344-2.336 43.284.6 68.252 8.728 3.99 1.298 8.111 2.66 12.167 4.04 28.667 9.571 56.279 15.785 79.851 17.991 20.506 1.898 38.839-5.645 49.01-20.198 10.513-15.039 7.642-35.415 4.576-49.432-6.49-29.64-15.218-60.205-43.609-79.591-16.369-11.227-36.567-16.45-56.035-21.318-7.138-1.833-14.6-3.715-21.512-5.873-12.346-3.796-24.335-8.695-35.983-13.432-18.446-7.528-37.525-15.315-57.901-18.625-4.867-.778-10.204-1.622-16.045-2.093-22.16-1.979-44.11 8.842-58.663 28.959-3.813 5.24-7.495 10.594-11.357 16.223-10.334 14.845-20.863 30.192-34.506 45.133zm46.512-60.886c14.39-19.873 36.064-30.58 57.933-28.617 5.824.503 11.13 1.297 15.996 2.092 20.28 3.245 39.325 11.048 57.723 18.56 11.632 4.737 23.67 9.734 36.048 13.465 6.992 2.158 14.406 4.056 21.56 5.89 19.468 4.964 39.455 10.09 55.776 21.268 28.164 19.224 36.535 48.378 43.268 79.088 3.033 13.871 5.889 34.07-4.446 48.784-10.01 14.325-28.05 21.739-48.28 19.857-23.508-2.19-51.055-8.404-79.656-17.96-4.105-1.362-8.112-2.725-12.184-4.022-25.065-8.112-48.135-11.13-68.576-8.761-21.966 2.53-43.51 11.016-69.873 27.482-14.423 9.02-27.58 19.987-40.461 30.597-21.82 18.09-44.387 36.795-72.86 45.425-19.71 5.97-47.68 4.738-69.613-3.05-6.056-4.944-10.014-11.998-11.08-19.743-.919-7.08-.793-14.257.372-21.301.341-2.596.747-5.257 1.136-7.82l.243-1.622c4.008-26.282 12.476-59.345 42.619-81.717 10.156-7.528 21.366-11.68 32.22-15.688 5.207-1.93 10.593-3.926 15.8-6.262 5.209-2.336 9.735-4.559 14.115-6.927 13.534-7.186 25.8-16.54 36.308-27.694 13.676-14.925 24.335-30.32 34.523-45.181 3.91-5.549 7.592-10.951 11.389-16.191v.048z" transform="translate(-43 -283) translate(300.13 306.62)"/>
                        <path d="M249.66 201.315c-4.867 2.433-9.734 4.575-14.6 6.651-10.027 4.316-20.394 8.777-29.9 16.077-12.42 9.568-22.51 21.826-29.51 35.854-5.76 11.21-10.237 24.091-14.115 40.558l-.438 1.785c-.535 2.32-1.087 4.623-1.622 6.927-1.684 6.581-2.347 13.383-1.963 20.166.438 4.704 2.287 13.53 9.831 19.581h.13c12.01 3.72 24.514 5.596 37.086 5.565 9.577.104 19.12-1.152 28.342-3.732 27.45-8.274 49.514-25.957 70.88-42.943 11.416-9.46 23.33-18.304 35.691-26.492 18.527-11.778 40.883-24.335 66.272-27.823 19.355-2.677 41.434-.146 65.623 7.544 4.202 1.33 8.469 2.741 11.73 3.812 22.518 7.479 50.552 16.775 76.574 18.316 28.764 1.622 42.943-9.28 49.74-18.786 8.307-11.584 9.458-27.775 3.488-49.498-7.252-26.411-16.58-53.666-43.51-71.382-15.445-10.188-34.07-15.104-52.11-19.874-6.327-1.622-12.865-3.39-19.062-5.305-10.918-3.358-21.626-7.56-31.96-11.616-17.391-6.813-35.367-13.87-54.478-16.92-4.266-.682-9.36-1.444-14.73-1.931-27.856-2.53-47.875 15.866-55.16 23.88-7.608 8.356-14.6 17.197-21.917 26.558-7.317 9.361-15.137 19.241-23.978 29.089-9.678 10.605-20.915 19.675-33.323 26.898-3.975 2.336-8.225 4.623-13.011 7.04zm46.918-33.388c8.858-9.864 16.564-19.646 24.01-29.12 7.447-9.475 14.31-18.187 21.885-26.51 7.22-7.933 26.963-26.135 54.527-23.62 5.337.486 10.415 1.232 14.6 1.914 19.014 3.05 36.957 10.074 54.3 16.888 10.367 4.056 21.09 8.258 32.025 11.632 6.23 1.915 12.768 3.65 19.095 5.322 17.959 4.737 36.534 9.636 51.914 19.743 26.704 17.586 35.983 44.695 43.186 70.945 5.89 21.48 4.786 37.443-3.358 48.816-12.135 16.92-33.371 19.37-49.059 18.445-25.957-1.525-53.877-10.82-76.363-18.267-3.245-1.087-7.511-2.498-11.73-3.829-24.334-7.722-46.495-10.253-65.98-7.56-25.519 3.602-47.972 16.11-66.563 27.937-12.402 8.2-24.354 17.06-35.805 26.541-21.285 17.002-43.3 34.572-70.604 42.797-18.576 5.532-44.03 4.867-64.893-1.8-7.268-5.874-9.053-14.407-9.474-18.982-.374-6.698.294-13.413 1.979-19.906.503-2.287 1.038-4.591 1.622-6.895l.422-1.8c6.067-25.747 15.964-54.9 43.348-75.942 9.41-7.235 19.744-11.68 29.722-15.964 4.867-2.092 9.815-4.234 14.6-6.667 4.786-2.434 9.07-4.737 12.98-7.057 12.517-7.256 23.852-16.381 33.614-27.06z" transform="translate(-43 -283) translate(300.13 306.62)"/>
                        <path d="M219.712 221.302c-25.033 19.954-36.389 46.853-44.322 70.539l-.73 2.19c-.665 1.946-1.314 3.877-1.93 5.824-1.964 6.148-3.716 12.2-3.638 18.754-.116 7.177 2.892 14.052 8.245 18.835l.146.081c10.537 2.869 21.411 4.315 32.333 4.3 9.569.091 19.104-1.16 28.325-3.716 26.493-7.82 48.216-24.48 69.241-40.558 9.734-7.495 19.906-15.25 30.435-22.096 17.846-11.616 39.034-24.335 62.995-28.245 18.414-3.017 39.618-.892 63.012 6.327 3.342 1.022 7.024 2.207 11.356 3.602l3.699 1.233c22.875 7.544 46.544 15.363 69.581 17.408 30.825 2.725 44.89-9.734 50.52-17.376 10.804-14.714 7.268-35.09 2.384-49.578-7.949-23.637-18.721-47.648-43.43-63.27-14.503-9.15-31.716-13.855-48.377-18.414-5.419-1.476-11.032-3.018-16.402-4.656-9.393-2.904-18.657-6.376-27.58-9.734-16.45-6.149-33.436-12.508-51.378-15.331-3.878-.6-8.501-1.282-13.4-1.736-21.983-2.044-40.25 9.101-51.72 18.803-12.622 10.69-22.973 22.923-33.924 35.87-3.845 4.558-7.82 9.263-12.021 14.032-8.902 10.154-19.192 19.002-30.565 26.282-3.553 2.271-7.446 4.608-11.924 7.155-4.477 2.547-9.004 4.867-13.433 7.057-9.263 4.672-18.738 9.426-27.498 16.418zm41.223-22.713c4.478-2.563 8.388-4.867 11.957-7.187 11.465-7.317 21.842-16.214 30.824-26.427 4.202-4.786 8.112-9.491 12.021-14.034 10.935-12.978 21.253-25.13 33.826-35.788 11.356-9.604 29.429-20.636 51.12-18.608 4.867.454 9.49 1.12 13.367 1.72 17.846 2.822 34.8 9.166 51.201 15.298 8.972 3.358 18.251 6.814 27.677 9.734 5.37 1.622 10.983 3.245 16.418 4.688 16.596 4.527 33.744 9.215 48.15 18.3 24.498 15.429 35.189 39.293 43.106 62.784 4.867 14.31 8.323 34.41-2.271 48.849-5.532 7.511-19.37 19.727-49.806 17.034-22.94-2.044-46.56-9.831-69.403-17.375l-3.78-1.25c-4.25-1.41-7.933-2.579-11.275-3.617-23.508-7.252-44.841-9.393-63.384-6.36-24.108 3.943-45.328 16.71-63.271 28.375-10.562 6.862-20.701 14.6-30.5 22.145-20.944 16.06-42.619 32.657-68.965 40.444-17.456 5.11-40.558 4.867-60.124-.567-5.144-4.63-8.021-11.267-7.884-18.187 0-6.489 1.622-12.427 3.601-18.51.617-1.931 1.266-3.878 1.915-5.825l.73-2.174c7.868-23.572 19.257-50.292 44.078-70.165 8.68-6.928 18.106-11.665 27.223-16.224 4.413-2.206 9.004-4.493 13.45-7.04v-.033z" transform="translate(-43 -283) translate(300.13 306.62)"/>
                        <path d="M188.19 285.53c-.762 1.622-1.525 3.374-2.271 5.061-2.596 5.906-4.786 11.357-5.257 17.36-.793 6.762 1.662 13.502 6.62 18.17l.178.08c8.93 2.048 18.062 3.077 27.223 3.067 9.68.075 19.327-1.18 28.666-3.732 25.957-7.495 47.73-23.459 68.77-38.936 7.788-5.71 15.818-11.615 23.995-17.034 20.084-13.238 38.417-24.595 59.734-28.683 17.732-3.39 37.492-1.703 60.415 5.143 3.245.973 6.847 2.093 10.805 3.39l9.41 3.116c19.873 6.586 40.396 13.416 60.577 15.817 31.36 3.764 45.604-8.371 51.282-15.931 4.202-5.597 12.752-21.61 1.298-49.676-7.22-17.959-18.851-40.51-43.332-55.013-13.693-8.111-29.608-12.703-45.004-17.067-4.412-1.265-8.987-2.563-13.384-3.91-7.641-2.368-15.266-5.045-22.631-7.657-15.688-5.532-31.928-11.259-48.897-13.887-3.488-.52-7.642-1.12-12.087-1.541-15.185-1.46-30.97 3.033-48.231 13.725-17.684 10.95-29.494 24.805-43.154 40.817l-2.856 3.359c-8.133 9.697-17.466 18.32-27.774 25.665-3.245 2.222-6.603 4.526-10.853 7.268s-8.242 5.094-12.281 7.463c-8.727 4.845-17.04 10.401-24.854 16.612-22.34 18.657-34.848 42.1-45.02 64.666l-1.087 2.288zm46.56-66.305c7.804-6.192 16.106-11.727 24.822-16.548 4.056-2.4 8.242-4.867 12.314-7.495 4.072-2.628 7.722-5.061 10.886-7.284 10.368-7.391 19.76-16.064 27.952-25.811l2.856-3.342c13.627-15.98 25.373-29.77 42.959-40.672 17.116-10.594 32.722-15.039 47.729-13.611 4.429.421 8.566 1.022 12.038 1.622 16.904 2.596 33.095 8.323 48.767 13.838 7.365 2.612 14.99 5.305 22.712 7.658 4.397 1.363 8.972 2.66 13.385 3.926 15.347 4.364 31.213 8.874 44.808 16.986 24.335 14.438 35.691 36.778 43.024 54.623 11.357 27.677 2.92 43.398-1.2 48.881-5.581 7.414-19.565 19.322-50.536 15.623-20.1-2.4-40.558-9.215-60.415-15.801l-9.426-3.115c-3.958-1.298-7.495-2.401-10.82-3.39-23.038-6.88-42.928-8.567-60.79-5.176-21.495 4.104-39.893 15.477-60.026 28.829-8.192 5.435-16.223 11.356-24.026 17.05-20.993 15.396-42.684 31.328-68.527 38.774-16.337 4.672-37.038 4.867-55.37.681-4.728-4.49-7.056-10.95-6.279-17.423.454-5.938 2.628-11.26 5.192-17.1.746-1.622 1.492-3.358 2.27-5.045l1.023-2.255c10.058-22.55 22.453-45.896 44.711-64.455l-.032.032z" transform="translate(-43 -283) translate(300.13 306.62)"/>
                        <path d="M197.389 314.732h.13c7.093 1.284 14.286 1.936 21.495 1.948 9.995.057 19.953-1.225 29.608-3.814 26.411-7.398 49.043-23.345 70.928-38.774 4.867-3.44 9.912-6.992 14.925-10.399l1.623-1.12c17.018-11.583 34.636-23.572 54.802-28.017 16.775-3.715 35.691-2.417 57.787 3.942 3.245.925 6.62 1.963 10.35 3.245 4.868 1.622 9.735 3.245 14.488 4.867 17.05 5.792 34.685 11.762 52.207 14.423 13.66 2.092 38.595 2.952 52.06-14.52 11.097-14.407 7.382-35.156.195-49.74-10.416-21.091-24.562-36.47-43.268-46.837-13.173-7.317-28.13-11.762-42.586-16.062-3.147-.94-6.294-1.865-9.393-2.822-5.402-1.623-10.821-3.456-16.077-5.176-15.461-5.094-31.457-10.366-48.021-12.848-2.888-.438-6.717-.974-10.773-1.38-16.742-1.622-32.008 3.456-44.727 8.664-21.512 8.825-33.436 23.215-46.074 38.449-7.405 9.21-15.805 17.573-25.049 24.935-3.57 2.79-7.106 5.419-9.734 7.398-3.683 2.726-7.463 5.354-11.113 7.9-7.767 5.181-15.226 10.81-22.34 16.857-20.781 18.267-34.49 39.925-45.7 58.81l-1.412 2.335-2.514 4.25c-3.245 5.614-5.89 10.351-6.895 15.997-1.434 6.3.451 12.896 4.997 17.489h.08zm-4.332-17.36c.99-5.499 3.553-10.171 6.798-15.703l2.514-4.25 1.412-2.353c11.177-18.82 24.837-40.429 45.538-58.615 7.099-6.01 14.53-11.616 22.259-16.791 3.666-2.547 7.446-5.175 11.145-7.9 2.693-1.996 6.23-4.624 9.734-7.415 9.292-7.437 17.736-15.875 25.179-25.162 12.556-15.153 24.334-29.478 45.75-38.222 12.62-5.175 27.773-10.237 44.354-8.599 4.023.39 7.835.941 10.707 1.363 16.5 2.482 32.447 7.739 47.907 12.817 5.24 1.735 10.675 3.52 16.078 5.191 3.114.957 6.262 1.882 9.41 2.823 14.422 4.283 29.315 8.712 42.407 15.996 18.56 10.286 32.609 25.487 42.943 46.48 7.09 14.374 10.772 34.766-.114 48.897-13.206 17.131-37.8 16.223-51.298 14.211-17.44-2.66-35.042-8.614-52.06-14.39-4.754-1.622-9.734-3.244-14.504-4.867-3.747-1.2-7.138-2.255-10.367-3.244-22.242-6.392-41.272-7.69-58.192-3.959-20.312 4.478-37.995 16.515-55.078 28.147l-1.623 1.12c-5.013 3.407-10.058 6.96-14.941 10.399-21.837 15.396-44.404 31.295-70.67 38.66-16.539 4.297-33.813 4.955-50.632 1.93-4.233-4.39-5.982-10.61-4.656-16.563z" transform="translate(-43 -283) translate(300.13 306.62)"/>
                        <path d="M207.398 303.375h.13c15.507 1.844 31.222.771 46.334-3.163 29.883-8.112 55.954-26.33 78.942-42.44l5.338-3.748c14.828-10.496 30.175-21.35 47.842-25.827 15.85-4.024 33.89-3.131 55.16 2.758 3.244.876 6.408 1.833 9.896 2.952 6.262 2.012 12.605 4.234 18.737 6.392 14.52 5.094 29.527 10.367 44.663 13.19 11.146 2.076 38.58 4.948 52.823-13.109 11.356-14.357 7.706-35.366-.892-49.821-9.523-15.98-24.06-28.991-43.203-38.644-13.92-7.041-29.202-11.762-44.095-16.337l-4.98-1.541c-17.18-5.305-34.961-10.805-53.148-13.433-3.585-.52-6.586-.892-9.442-1.184-14.6-1.493-28.39.843-41.223 3.601-22.42 4.867-33.274 16.597-46.155 32.706-6.673 8.8-14.134 16.972-22.29 24.416-2.937 2.58-5.922 5.143-8.713 7.528-3.244 2.823-6.684 5.613-9.945 8.322-6.489 5.403-13.319 11-19.825 17.1-18.38 17.083-33.55 36.291-46.366 52.969l-4.558 5.889c-3.245 4.218-6.895 8.988-8.534 14.6-1.85 6.28-.519 12.85 3.407 16.743l.097.081zm-2.725-16.612c1.622-5.468 5.045-9.978 8.387-14.325l4.559-5.906c12.816-16.645 28.001-35.82 46.301-52.839 6.49-6.067 13.255-11.665 19.793-17.067 3.244-2.71 6.651-5.5 9.96-8.322 2.791-2.385 5.776-4.949 8.713-7.528 8.19-7.482 15.683-15.693 22.388-24.53 12.784-15.98 23.54-27.66 45.7-32.446 12.752-2.742 26.558-5.078 40.965-3.586 2.839.293 5.84.666 9.41 1.169 18.12 2.628 35.869 8.111 53.017 13.416l4.98 1.541c14.812 4.56 30.11 9.28 43.982 16.224 19.03 9.669 33.42 22.647 42.861 38.433 8.469 14.227 12.038 34.863.958 48.913-13.969 17.716-41.045 14.86-52.045 12.816-15.071-2.806-30.045-8.111-44.533-13.157-6.148-2.158-12.491-4.38-18.77-6.392-3.488-1.135-6.733-2.109-9.912-2.985-21.431-5.905-39.618-6.814-55.597-2.758-17.846 4.526-33.226 15.428-48.119 25.957l-5.32 3.748c-22.957 16.061-48.963 34.28-78.7 42.326-14.963 3.903-30.524 4.97-45.88 3.148-4.412-4.478-4.445-11.324-3.098-15.834v-.016z" transform="translate(-43 -283) translate(300.13 306.62)"/>
                        <path d="M217.392 292.019h.162c2.255.13 4.51.178 6.765.178 34.07 0 69.874-13.53 106.83-40.282 2.612-1.882 5.208-3.829 7.82-5.76 12.979-9.733 26.46-19.71 42.083-24.334 17.246-5.013 36.94-3.65 61.99 4.315 7.414 2.353 14.86 5.094 22.047 7.755 12.313 4.543 25.032 9.247 38.06 12.135 33.777 7.495 48.67-5.678 53.537-11.68 5.468-7.045 8.034-15.914 7.17-24.79-.669-9.069-3.842-17.774-9.166-25.146-10.707-14.763-27.807-23.67-43.105-30.435-45.604-20.165-90.77-29.64-134.2-28.163-26.67.908-37.313 14.957-49.48 31.23-4.938 6.866-10.36 13.372-16.223 19.467l-58.031 58.047-27.985 28.099c-3.732 3.731-7.95 7.95-10.172 13.19-2.044 4.866-2.288 11.664 1.784 16.044l.114.13zm-1.152-15.85c2.158-5.094 6.327-9.264 9.994-12.979l27.952-27.952 58.047-58.047c5.913-6.145 11.378-12.705 16.353-19.63 12.135-16.094 22.6-29.997 48.865-30.825 43.316-1.476 88.352 7.982 133.858 28.099 15.201 6.716 32.187 15.558 42.78 30.175 12.98 17.846 10.79 38.093 2.029 48.93-4.77 5.905-19.468 18.802-52.79 11.356-12.98-2.872-25.666-7.56-37.947-12.103-7.203-2.66-14.601-5.402-22.096-7.77-25.211-8.015-45.068-9.378-62.46-4.316-15.769 4.575-29.283 14.601-42.343 24.335-2.611 1.947-5.207 3.877-7.82 5.775-39.195 28.375-77.173 41.824-112.897 39.958-3.715-4.023-3.455-10.512-1.525-15.006z" transform="translate(-43 -283) translate(300.13 306.62)"/>
                    </g>
                    <path d="M430.906 408l-.146.129-.13.146-41.012 41.012-.146.146-20.895 20.896h4.105l18.705-18.705.146-.146 41.158-41.143.146-.146.146-.146 5.484-5.483v-1.509-2.596l-7.56 7.544zM336.617 396.286l41.158-41.142.13-.146 15.493-15.493c-1.022-.357-2.076-.698-3.115-1.006l-14.438 14.438-.146.13-.146.146-41.143 41.159-.146.146-27.58 27.58c.31 1.054.634 2.092 1.007 3.13l28.845-28.86.08-.082zM315.867 375.731l37.654-37.638c-2.076.552-4.104 1.217-6.1 1.963l-33.517 33.517-.097.098-.146.146-5.419 5.483c-.762 1.996-1.411 4.024-1.979 6.1l9.62-9.62-.016-.049zM377.905 437.59l41.012-41.012.146-.146 15.656-15.64c-.357-1.021-.746-2.01-1.136-3l-16.434 16.434-.146.146-41.158 41.158-.146.13-.146.146-29.64 29.656c.973.406 1.979.779 2.985 1.136l28.877-28.862.13-.146zM350.423 410.06L391.58 368.9l19.809-19.792c-.795-.6-1.622-1.168-2.417-1.72l-19.355 19.257-.097.097-.146.146-41.159 41.143-.146.146-32.56 32.576c.552.827 1.12 1.622 1.704 2.417l33.079-33.063.13-.048zM429.154 437.282l-23.75 23.751c9.786-5.795 17.955-13.964 23.75-23.75zM396.35 456.312l-12.978 12.979c1.817-.325 3.586-.73 5.338-1.2l9.539-9.54.13-.13 37.751-37.751c.487-1.753.876-3.537 1.2-5.338l-40.833 40.834-.146.146zM322.713 382.675l41.143-41.159.097-.097.146-.146 5.451-5.451c-1.46 0-2.92.113-4.364.243l-3.245 3.245-41.11 41.11-.145.13-16.516 16.515c-.13 1.444-.194 2.904-.227 4.38l18.624-18.576.146-.194zM329.592 389.553l41.159-41.158.13-.146.145-.146 11.357-11.356c-1.2-.211-2.401-.374-3.618-.52l-9.864 9.864-.146.146-41.045 41.11-.146.146-23.215 23.216c.13 1.216.308 2.433.503 3.617l24.643-24.627.097-.146zM363.953 424.012l.146-.146 41.158-41.143 19.793-19.808c-.584-.795-1.184-1.623-1.817-2.32l-19.955 19.97h-.097l-.146.147-41.094 41.19-33.322 33.323c.762.617 1.525 1.233 2.32 1.817l32.917-32.933.097-.097zM370.88 430.842l.146-.13 41.045-41.013.146-.146 18.316-18.332c-.47-.876-.973-1.752-1.492-2.628l-18.754 18.754-.13.146-41.159 41.142-.146.146-32.105 32.122c.86.503 1.735 1.006 2.628 1.493l31.408-31.408.097-.146zM357.123 417.084l.146-.146 41.012-41.012.13-.146 20.36-20.344c-.697-.682-1.395-1.363-2.125-2.012l-20.15 20.15-.145.145-41.159 41.159-.13.146-33.533 33.517c.665.714 1.33 1.428 2.028 2.11l33.42-33.42.146-.147zM343.35 403.31l.145-.13 40.997-41.012.146-.146 18.316-18.316c-.909-.486-1.817-.957-2.742-1.395l-17.505 17.505-.13.146-41.158 41.142-.146.146-.146.146-30.71 30.727c.437.925.908 1.833 1.394 2.726l31.376-31.392.162-.146zM384.654 444.615l.146-.146 41.012-41.012.13-.146.146-.13 11.454-11.454c-.211-1.152-.438-2.303-.682-3.44l-12.832 12.817-.146.146-.146.146-41.013 41.013-.13.146-26.2 26.184c1.082.26 2.233.487 3.456.682l24.659-24.66.146-.146zM104.462 399.498c-.01 2.516-2.054 4.549-4.57 4.543-2.515-.006-4.55-2.049-4.548-4.564.003-2.516 2.043-4.554 4.559-4.554 1.212 0 2.374.483 3.23 1.341.855.859 1.333 2.022 1.329 3.234zM140.915 399.498c-.009 2.516-2.054 4.549-4.57 4.543-2.515-.006-4.55-2.049-4.547-4.564.003-2.516 2.043-4.554 4.559-4.554 1.212 0 2.374.483 3.229 1.341.855.859 1.334 2.022 1.33 3.234zM104.462 436.698c-.01 2.516-2.054 4.549-4.57 4.543-2.515-.006-4.55-2.049-4.548-4.564.003-2.516 2.043-4.554 4.559-4.554 1.212 0 2.374.483 3.23 1.341.855.859 1.333 2.022 1.329 3.234zM140.915 436.698c-.009 2.516-2.054 4.549-4.57 4.543-2.515-.006-4.55-2.049-4.547-4.564.003-2.516 2.043-4.554 4.559-4.554 1.212 0 2.374.483 3.229 1.341.855.859 1.334 2.022 1.33 3.234zM104.462 473.898c-.01 2.516-2.054 4.549-4.57 4.543-2.515-.006-4.55-2.049-4.548-4.564.003-2.516 2.043-4.554 4.559-4.554 1.212 0 2.374.483 3.23 1.341.855.859 1.333 2.022 1.329 3.234zM140.915 473.898c-.009 2.516-2.054 4.549-4.57 4.543-2.515-.006-4.55-2.049-4.547-4.564.003-2.516 2.043-4.554 4.559-4.554 1.212 0 2.374.483 3.229 1.341.855.859 1.334 2.022 1.33 3.234zM1173.024 345.004c0 2.518-2.04 4.559-4.559 4.559-2.517 0-4.558-2.041-4.558-4.559 0-2.517 2.04-4.559 4.558-4.559s4.56 2.042 4.56 4.56zM1209.478 345.004c0 2.518-2.041 4.559-4.559 4.559-2.518 0-4.559-2.041-4.559-4.559 0-2.517 2.041-4.559 4.56-4.559 2.517 0 4.558 2.042 4.558 4.56zM1245.948 345.004c0 2.518-2.041 4.559-4.559 4.559-2.518 0-4.559-2.041-4.559-4.559 0-2.517 2.041-4.559 4.559-4.559 2.518 0 4.559 2.042 4.559 4.56zM1209.478 382.204c0 2.518-2.041 4.559-4.559 4.559-2.518 0-4.559-2.041-4.559-4.559 0-2.518 2.041-4.559 4.56-4.559 2.517 0 4.558 2.041 4.558 4.56zM1245.948 382.204c0 2.518-2.041 4.559-4.559 4.559-2.518 0-4.559-2.041-4.559-4.559 0-2.518 2.041-4.559 4.559-4.559 2.518 0 4.559 2.041 4.559 4.56zM1245.948 419.404c0 2.518-2.041 4.559-4.559 4.559-2.518 0-4.559-2.041-4.559-4.559 0-2.518 2.041-4.559 4.559-4.559 2.518 0 4.559 2.041 4.559 4.56zM798.64 389.099L789.295 392.603 792.799 383.259 802.144 379.754zM781.329 406.409L771.985 409.914 775.489 400.569 784.834 397.065zM793.335 418.415L783.99 421.919 787.478 412.574 796.839 409.07zM764.019 423.736L754.658 427.24 758.162 417.879 767.523 414.375zM776.024 435.741L766.663 439.245 770.168 429.884 779.529 426.38zM788.03 447.746L778.669 451.234 782.173 441.89 791.534 438.385zM906.103 334.8L896.742 338.304 900.246 328.959 909.607 325.455z" transform="translate(-43 -283)"/>
                </g>
            </g>
        </g>
    </g>
</svg>
